<svg version="1.1" id="Layer_1" xmlns="http://www.w3.org/2000/svg" xmlns:xlink="http://www.w3.org/1999/xlink" x="0px" y="0px"
	 width="100%" viewBox="0 0 282 384" enable-background="new 0 0 282 384" xml:space="preserve">
<path fill="#F7F7F6" opacity="1.000000" stroke="none" 
	d="
M114.000000,385.000000 
	C76.346016,385.000000 38.692036,385.000000 1.019027,385.000000 
	C1.019027,257.055786 1.019027,129.111588 1.019027,1.083686 
	C94.912491,1.083686 188.825073,1.083686 282.868835,1.083686 
	C282.868835,128.999908 282.868835,256.999939 282.868835,385.000000 
	C237.906982,385.000000 192.922150,385.000000 147.561798,384.607056 
	C147.855240,383.818390 148.541473,383.051910 149.190659,383.082123 
	C160.401031,383.603455 170.972488,381.087006 181.065720,376.402832 
	C182.550110,375.713989 183.719543,374.346497 185.317337,373.125214 
	C186.031265,372.886902 186.462540,372.816406 187.124146,373.061493 
	C191.539322,374.135040 205.106552,368.352356 207.176498,364.852600 
	C207.290848,364.659241 206.707458,364.053253 206.445709,363.587219 
	C206.442566,363.535095 206.446793,363.430725 206.840363,363.569550 
	C210.365906,362.416046 213.806732,361.585236 216.567261,359.737885 
	C222.825027,355.550140 228.747711,350.861725 235.417206,345.924927 
	C235.603760,345.164429 235.605362,341.761475 236.680008,341.379822 
	C240.785706,339.921600 241.838989,336.358917 243.733170,333.289825 
	C249.936737,323.238342 259.008240,315.098663 261.653442,302.660767 
	C263.902344,292.086426 268.776398,282.070190 271.022827,271.495575 
	C272.623627,263.960144 272.193085,255.894028 271.921417,248.090775 
	C271.697235,241.650375 272.482025,235.064636 269.207581,228.815735 
	C267.697723,225.934387 268.723022,221.817444 267.548737,218.650070 
	C263.963898,208.980682 260.248810,199.320740 255.843491,190.007614 
	C252.740738,183.448212 249.231476,176.749542 244.471741,171.383163 
	C237.322983,163.323288 228.773743,156.523468 221.093292,148.912079 
	C214.060059,141.942123 205.385773,137.854477 196.659882,133.682907 
	C194.518494,132.659180 193.083755,129.799652 190.935043,129.215607 
	C184.325882,127.419144 177.507370,126.408287 170.815262,124.893173 
	C168.518570,124.373199 165.630234,123.186989 168.391388,120.287483 
	C173.757538,114.652466 179.758484,109.679771 183.528015,102.590881 
	C185.968231,98.001892 189.436203,93.971313 192.155304,89.514603 
	C193.999466,86.491966 195.343292,83.164055 196.970093,79.609039 
	C197.958923,77.491982 199.214020,75.834846 199.765884,73.969658 
	C203.661850,60.801556 209.043900,47.978664 209.740158,34.035492 
	C210.034424,28.142582 210.141403,22.201565 209.688889,16.332117 
	C209.539795,14.398456 207.713715,11.510493 206.049377,10.988623 
	C201.749680,9.640413 197.000168,8.374981 192.632935,8.868695 
	C182.837891,9.976020 173.129776,11.995096 163.454468,13.976053 
	C154.810120,15.745924 146.033127,17.313173 137.731552,20.177914 
	C130.468353,22.684334 123.301552,26.189840 117.060661,30.618725 
	C114.176529,32.665466 108.541199,33.176113 108.473267,38.870567 
	C107.362633,39.226418 106.470779,39.344269 105.849075,39.817234 
	C94.886124,48.157433 87.378914,59.074341 82.012680,71.639290 
	C80.325607,75.589561 78.706818,79.752625 76.116287,83.087784 
	C72.740204,87.434296 74.285545,90.186104 77.757256,93.398628 
	C77.899498,94.496056 77.988815,95.228035 78.053009,96.287445 
	C78.409004,97.153427 78.790131,97.691994 79.171249,98.230560 
	C79.684273,97.060204 80.197296,95.889847 80.712753,94.700027 
	C80.715179,94.680557 80.693962,94.646057 81.058533,94.706955 
	C83.129196,92.534981 84.803085,90.276627 86.546883,88.073601 
	C94.613441,77.882675 101.999352,67.061432 112.520142,59.099842 
	C114.588097,57.534924 117.551628,57.074104 119.444443,55.372498 
	C124.425140,50.894951 129.364029,46.719952 135.410034,43.409595 
	C144.980255,38.169659 154.507553,33.965843 165.585373,33.934547 
	C170.493362,33.920681 175.442825,33.879719 180.294205,33.245220 
	C184.094574,32.748180 185.473251,34.289467 184.948807,37.548820 
	C183.906845,44.024288 182.612671,50.467018 181.191803,56.872044 
	C178.160721,70.535500 171.475037,82.341957 162.583252,93.023003 
	C161.714081,94.067047 161.509125,95.664032 160.966827,97.234360 
	C160.937805,97.464363 160.914688,97.927422 160.725510,97.969879 
	C160.536331,98.012344 160.152863,98.070099 159.844482,97.933327 
	C158.267181,98.169319 156.524841,98.134628 155.800568,98.976158 
	C145.467148,110.982681 132.668747,119.002502 117.407967,123.115097 
	C114.109550,124.003983 110.578903,124.247665 107.453064,125.520164 
	C97.747467,129.471191 87.980186,133.366943 78.632889,138.071075 
	C71.315559,141.753616 64.151665,146.052673 57.726448,151.104095 
	C51.889214,155.693268 46.899784,161.457016 41.984993,167.093918 
	C37.779602,171.917206 34.064289,177.195389 30.452230,182.490662 
	C29.439180,183.975800 29.556929,186.232300 29.147335,188.117493 
	C29.138693,188.100037 29.135031,188.106232 28.766357,188.105774 
	C27.661709,188.703415 26.586960,189.150879 26.243376,189.923492 
	C23.505627,196.079697 20.349154,202.126862 18.387205,208.533951 
	C14.884287,219.973312 11.402913,231.514038 9.340900,243.263077 
	C8.168582,249.942780 9.301372,257.198273 10.325499,264.055634 
	C12.292027,277.223175 14.483431,290.431641 20.075407,302.674011 
	C21.578039,305.963684 21.035891,310.889069 26.143024,311.926025 
	C26.125580,311.981049 26.113192,311.866272 26.135208,312.101807 
	C26.274464,312.648895 26.484358,312.874054 26.889267,313.203430 
	C26.991629,313.394073 27.077978,313.818146 27.115421,314.066467 
	C27.381159,314.549683 27.609457,314.784546 28.018280,315.250824 
	C28.457602,316.004364 28.716396,316.526520 29.043674,317.250793 
	C29.252565,317.712799 29.457083,317.904205 29.872509,318.319153 
	C30.159668,319.023346 30.300028,319.435547 30.041264,319.928558 
	C26.690832,324.021210 28.238665,325.990875 35.076340,326.950684 
	C35.064728,326.961975 35.079788,326.921539 35.052948,327.310791 
	C35.252712,328.814697 35.219498,330.073303 35.745327,331.022125 
	C42.470577,343.156982 53.480553,351.297363 63.936428,359.631226 
	C70.936020,365.210236 79.302094,369.519318 87.684258,372.786774 
	C95.178734,375.708252 102.098961,380.946960 110.951881,380.149719 
	C113.574898,379.913513 116.067383,381.442993 114.000000,385.000000 
z"/>
<path fill="#FBF0E0" opacity="1.000000" stroke="none" 
	d="
M185.034698,373.292999 
	C183.719543,374.346497 182.550110,375.713989 181.065720,376.402832 
	C170.972488,381.087006 160.401031,383.603455 149.190659,383.082123 
	C148.541473,383.051910 147.855240,383.818390 147.093140,384.607056 
	C142.643097,385.000000 138.286194,385.000000 133.373566,384.607025 
	C128.436600,382.704651 124.058434,381.245056 120.000000,385.000000 
	C118.285645,385.000000 116.571281,385.000000 114.428467,385.000000 
	C116.067383,381.442993 113.574898,379.913513 110.951881,380.149719 
	C102.098961,380.946960 95.178734,375.708252 87.684258,372.786774 
	C79.302094,369.519318 70.936020,365.210236 63.936428,359.631226 
	C53.480553,351.297363 42.470577,343.156982 35.745327,331.022125 
	C35.219498,330.073303 35.252712,328.814697 35.346077,327.471680 
	C36.599369,328.397949 37.437832,329.647339 38.481274,330.692047 
	C45.774075,337.993896 53.109261,345.253418 60.589058,352.814056 
	C63.679569,355.247009 66.611916,357.392395 69.742882,359.806213 
	C76.334175,363.566681 82.555244,367.429413 89.151024,370.482605 
	C110.668701,380.443207 133.429657,383.116913 156.721222,380.091736 
	C166.291946,378.848663 175.604630,375.619019 185.034698,373.292999 
z"/>
<path fill="#F7F7F6" opacity="1.000000" stroke="none" 
	d="
M120.463181,385.000000 
	C124.058434,381.245056 128.436600,382.704651 132.908905,384.607025 
	C128.975464,385.000000 124.950912,385.000000 120.463181,385.000000 
z"/>
<path fill="#FBF0E0" opacity="1.000000" stroke="none" 
	d="
M196.910858,79.972664 
	C195.343292,83.164055 193.999466,86.491966 192.155304,89.514603 
	C189.436203,93.971313 185.968231,98.001892 183.528015,102.590881 
	C179.758484,109.679771 173.757538,114.652466 168.391388,120.287483 
	C165.630234,123.186989 168.518570,124.373199 170.815262,124.893173 
	C177.507370,126.408287 184.325882,127.419144 190.935043,129.215607 
	C193.083755,129.799652 194.518494,132.659180 196.659882,133.682907 
	C205.385773,137.854477 214.060059,141.942123 221.093292,148.912079 
	C228.773743,156.523468 237.322983,163.323288 244.471741,171.383163 
	C249.231476,176.749542 252.740738,183.448212 255.843491,190.007614 
	C260.248810,199.320740 263.963898,208.980682 267.548737,218.650070 
	C268.723022,221.817444 267.697723,225.934387 269.207581,228.815735 
	C272.482025,235.064636 271.697235,241.650375 271.921417,248.090775 
	C272.193085,255.894028 272.623627,263.960144 271.022827,271.495575 
	C268.776398,282.070190 263.902344,292.086426 261.653442,302.660767 
	C259.008240,315.098663 249.936737,323.238342 243.733170,333.289825 
	C241.838989,336.358917 240.785706,339.921600 236.680008,341.379822 
	C235.605362,341.761475 235.603760,345.164429 235.417206,345.924927 
	C228.747711,350.861725 222.825027,355.550140 216.567261,359.737885 
	C213.806732,361.585236 210.365906,362.416046 207.044205,363.303772 
	C213.275314,357.970245 219.696152,353.041290 226.102829,348.089874 
	C226.088669,348.067383 226.056580,348.106384 226.318558,348.036652 
	C226.759277,347.667114 226.938004,347.367340 227.062988,347.062622 
	C227.009232,347.057678 227.102570,347.111938 227.413971,346.989380 
	C233.182983,340.600037 238.640625,334.333282 244.062073,328.031799 
	C244.025879,327.997040 244.068954,328.087646 244.378113,327.951782 
	C246.167130,325.577515 247.647018,323.339142 249.086884,321.043884 
	C249.046844,320.987030 249.104401,321.112946 249.424805,320.985535 
	C254.039413,312.252472 258.996674,303.905212 262.475281,294.981598 
	C267.939056,280.965363 270.923828,266.150177 269.663177,251.114319 
	C268.657684,239.122192 266.610413,227.064362 263.522980,215.434616 
	C258.508179,196.544891 249.162750,179.771622 235.120117,165.937225 
	C235.106949,166.010986 235.160309,165.870087 235.088470,165.541275 
	C232.716034,163.094070 230.415421,160.975693 228.068985,158.912933 
	C228.023163,158.968582 228.144089,158.890106 228.088348,158.579987 
	C227.380646,157.810303 226.728683,157.350739 226.044540,156.920593 
	C226.012360,156.950043 226.099564,156.947769 226.019623,156.666107 
	C225.611450,156.198059 225.283203,156.011673 224.894012,155.744217 
	C224.833084,155.663162 224.630356,155.669632 224.494171,155.347580 
	C220.262161,151.982117 216.166336,148.938721 212.034790,145.934723 
	C211.999084,145.974152 212.093155,145.924530 211.941040,145.618286 
	C206.527664,142.495743 201.266434,139.679443 195.888672,136.781937 
	C195.772141,136.700714 195.496857,136.770828 195.266266,136.487671 
	C188.322021,133.523392 181.595963,130.872742 174.899292,128.149811 
	C170.844666,126.501167 166.835587,124.740562 162.937561,122.806885 
	C163.172226,122.255821 163.275345,121.928123 163.674591,121.432846 
	C169.025726,115.545380 174.080734,109.825500 179.115997,104.048943 
	C179.096252,103.992271 179.108368,104.110756 179.421936,103.985641 
	C184.553314,96.247055 189.371124,88.633568 194.482819,80.983757 
	C195.488083,80.622505 196.199463,80.297585 196.910858,79.972664 
z"/>
<path fill="#FCE9CF" opacity="1.000000" stroke="none" 
	d="
M160.995850,97.004364 
	C161.509125,95.664032 161.714081,94.067047 162.583252,93.023003 
	C171.475037,82.341957 178.160721,70.535500 181.191803,56.872044 
	C182.612671,50.467018 183.906845,44.024288 184.948807,37.548820 
	C185.473251,34.289467 184.094574,32.748180 180.294205,33.245220 
	C175.442825,33.879719 170.493362,33.920681 165.585373,33.934547 
	C154.507553,33.965843 144.980255,38.169659 135.410034,43.409595 
	C129.364029,46.719952 124.425140,50.894951 119.444443,55.372498 
	C117.551628,57.074104 114.588097,57.534924 112.520142,59.099842 
	C101.999352,67.061432 94.613441,77.882675 86.546883,88.073601 
	C84.803085,90.276627 83.129196,92.534981 81.134079,94.371834 
	C83.628227,89.360512 86.411415,84.745216 89.160706,80.096344 
	C89.126808,80.062775 89.042519,80.106033 89.310051,80.032791 
	C89.731339,79.635521 89.885086,79.311501 90.012894,78.991257 
	C89.986946,78.995049 90.002007,79.045273 90.287323,78.896858 
	C91.131264,77.844780 91.689903,76.941116 92.435677,75.973778 
	C92.844391,75.741623 92.977242,75.519966 93.335709,75.092484 
	C97.120399,70.639862 100.590744,66.339874 104.028374,62.026554 
	C103.995659,62.013218 104.041069,62.067410 104.370132,62.011032 
	C105.856842,60.996384 107.014481,60.038116 108.403923,59.008221 
	C108.635727,58.936588 108.996597,58.612194 109.261276,58.550404 
	C109.750191,58.017372 109.974419,57.546127 110.138733,57.060852 
	C110.078812,57.046825 110.073761,57.169796 110.358360,57.114273 
	C110.820618,56.734238 110.998283,56.409721 111.113205,56.085499 
	C111.050453,56.085789 111.076340,56.208584 111.386658,56.197357 
	C112.153702,55.802040 112.610435,55.417942 113.316360,55.004780 
	C113.711136,54.893318 113.856697,54.810928 114.322952,54.709389 
	C115.503998,53.833111 116.364349,52.975983 117.155563,52.108749 
	C117.086411,52.098652 117.101997,52.237534 117.405235,52.227642 
	C118.133247,51.813389 118.558022,51.409023 118.992950,51.005581 
	C119.003098,51.006500 119.008659,50.986927 119.267059,50.929695 
	C119.714340,50.591671 119.903221,50.310879 120.054718,50.036167 
	C120.017334,50.042244 120.058426,50.105869 120.393036,50.061142 
	C122.510231,48.357777 124.292816,46.699139 126.040695,45.027847 
	C126.005997,45.015198 126.035973,45.082714 126.369675,45.027779 
	C128.168884,44.004620 129.634399,43.036388 131.057770,42.067238 
	C131.015625,42.066319 131.065186,42.134525 131.427521,42.114231 
	C134.621552,40.419823 137.453232,38.745708 140.469086,37.047173 
	C140.653259,37.022751 140.968201,36.825554 141.354095,36.870522 
	C155.713318,31.674986 170.094772,29.675974 185.308533,31.670277 
	C186.377228,33.073719 187.677460,34.271278 187.698578,35.490978 
	C187.767212,39.456455 187.821777,43.518314 187.069748,47.385147 
	C183.886993,63.750370 177.234955,78.614861 166.700562,91.917175 
	C166.253815,92.352211 166.069611,92.676056 165.701080,93.103020 
	C165.301727,93.393883 165.129044,93.614731 164.724670,93.958183 
	C164.250336,94.364594 164.050034,94.681503 163.661880,95.114487 
	C163.251328,95.438362 163.107132,95.690979 162.790100,96.068893 
	C162.350327,96.433578 162.161865,96.717796 161.986511,97.003433 
	C161.999588,97.004837 162.000183,96.977013 161.748901,96.976219 
	C161.330353,96.985077 161.163116,96.994720 160.995850,97.004364 
z"/>
<path fill="#FBE7CF" opacity="1.000000" stroke="none" 
	d="
M196.970093,79.609039 
	C196.199463,80.297585 195.488083,80.622505 194.535004,80.631058 
	C196.425293,74.737061 198.798935,69.237961 200.641785,63.566395 
	C205.272903,49.313717 208.655838,34.812035 208.087646,19.662460 
	C207.884109,14.235031 206.080154,11.971372 201.137451,11.895157 
	C184.391205,11.636934 168.010330,14.133967 151.622742,18.959770 
	C135.207214,21.469589 121.930710,29.777708 109.070229,39.053711 
	C108.983833,38.970661 108.817780,38.797844 108.817780,38.797844 
	C108.541199,33.176113 114.176529,32.665466 117.060661,30.618725 
	C123.301552,26.189840 130.468353,22.684334 137.731552,20.177914 
	C146.033127,17.313173 154.810120,15.745924 163.454468,13.976053 
	C173.129776,11.995096 182.837891,9.976020 192.632935,8.868695 
	C197.000168,8.374981 201.749680,9.640413 206.049377,10.988623 
	C207.713715,11.510493 209.539795,14.398456 209.688889,16.332117 
	C210.141403,22.201565 210.034424,28.142582 209.740158,34.035492 
	C209.043900,47.978664 203.661850,60.801556 199.765884,73.969658 
	C199.214020,75.834846 197.958923,77.491982 196.970093,79.609039 
z"/>
<path fill="#FCE9CF" opacity="1.000000" stroke="none" 
	d="
M29.155979,188.134964 
	C29.556929,186.232300 29.439180,183.975800 30.452230,182.490662 
	C34.064289,177.195389 37.779602,171.917206 41.984993,167.093918 
	C46.899784,161.457016 51.889214,155.693268 57.726448,151.104095 
	C64.151665,146.052673 71.315559,141.753616 78.632889,138.071075 
	C87.980186,133.366943 97.747467,129.471191 107.453064,125.520164 
	C110.578903,124.247665 114.109550,124.003983 117.407967,123.115097 
	C132.668747,119.002502 145.467148,110.982681 155.800568,98.976158 
	C156.524841,98.134628 158.267181,98.169319 159.703430,98.227203 
	C158.852524,100.026863 157.834320,101.395866 156.834320,102.774948 
	C156.852539,102.785027 156.850784,102.820404 156.534271,102.865433 
	C155.758484,103.565567 155.299194,104.220673 154.900085,104.918114 
	C154.960281,104.960449 154.875931,104.839836 154.543747,104.897156 
	C153.314758,105.928276 152.417938,106.902084 151.402710,107.870590 
	C151.284302,107.865288 151.095200,108.008263 150.822998,108.052994 
	C150.354095,108.395996 150.157379,108.694260 149.981506,108.999008 
	C150.002365,109.005493 149.994827,108.962471 149.735199,109.025246 
	C149.294525,109.381699 149.113495,109.675385 148.963715,109.981590 
	C148.994965,109.994110 148.969986,109.931595 148.706085,109.997017 
	C148.269913,110.364449 148.097656,110.666458 147.961899,110.972336 
	C147.998398,110.976212 147.950165,110.920868 147.634583,110.975937 
	C146.539307,111.686768 145.759628,112.342537 144.991821,113.000122 
	C145.003693,113.001945 144.997833,112.978546 144.656067,113.048958 
	C141.202927,115.081047 138.091537,117.042725 134.991959,119.005630 
	C135.003754,119.006859 135.007172,118.983360 134.675354,119.011139 
	C133.444977,119.657661 132.546432,120.276413 131.510513,120.886642 
	C131.373138,120.878113 131.121231,120.989044 130.758102,120.984688 
	C128.563843,121.955055 126.732712,122.929779 124.945618,123.929169 
	C124.989655,123.953842 124.944267,123.863670 124.543915,123.854904 
	C117.758591,125.901489 111.373627,127.956841 104.995300,130.009735 
	C105.001938,130.007278 105.014229,130.000488 104.698898,129.978180 
	C103.886513,130.263458 103.389458,130.571030 102.908768,130.861572 
	C102.925133,130.844559 102.877220,130.847672 102.492508,130.872772 
	C100.183159,131.387253 98.195007,131.705307 96.343452,132.391800 
	C69.647614,142.289597 47.819851,158.285690 32.992260,183.246521 
	C32.921467,183.398438 32.897518,183.732803 32.610062,183.931488 
	C31.786039,185.352829 31.249479,186.575470 30.683962,187.792206 
	C30.655005,187.786316 30.596315,187.779343 30.348995,187.812256 
	C29.809271,188.016296 29.494040,188.112885 29.155979,188.134964 
z"/>
<path fill="#D08A4F" opacity="1.000000" stroke="none" 
	d="
M226.116989,348.112366 
	C219.696152,353.041290 213.275314,357.970245 206.650635,363.164948 
	C206.446793,363.430725 206.442566,363.535095 206.113083,363.592896 
	C199.487000,366.682434 193.190414,369.714172 186.893829,372.745911 
	C186.462540,372.816406 186.031265,372.886902 185.317337,373.125214 
	C175.604630,375.619019 166.291946,378.848663 156.721222,380.091736 
	C133.429657,383.116913 110.668701,380.443207 89.151024,370.482605 
	C82.555244,367.429413 76.334175,363.566681 69.866318,359.660950 
	C69.791130,359.247223 70.034325,358.953522 70.401855,358.972626 
	C71.683426,359.335571 72.620743,359.628174 73.507919,360.031128 
	C82.519180,364.124573 91.265259,369.006958 100.601952,372.119507 
	C109.441269,375.066223 118.861916,376.360687 128.091446,378.023560 
	C141.453430,380.430969 154.791153,378.931122 167.747757,375.741425 
	C176.968781,373.471375 185.823486,369.592743 194.698883,366.071991 
	C204.269928,362.275269 213.056122,357.101685 220.733490,350.094666 
	C222.041504,348.900879 224.298431,348.746765 226.116989,348.112366 
z"/>
<path fill="#D08A4F" opacity="1.000000" stroke="none" 
	d="
M29.147335,188.117493 
	C29.494040,188.112885 29.809271,188.016296 30.446434,188.185272 
	C30.163797,190.217880 29.587582,191.931458 28.899899,193.599091 
	C26.322289,199.849808 23.343042,205.961838 21.179459,212.351089 
	C15.685667,228.574661 14.103362,245.340286 14.948419,262.405975 
	C15.711325,277.812683 19.458265,292.429535 26.526142,306.097656 
	C29.507002,311.862122 33.019104,317.404999 36.781654,322.698975 
	C41.690834,329.606262 46.978374,336.255829 52.322723,342.837952 
	C54.965969,346.093414 58.101173,348.949402 60.863956,352.116760 
	C60.714119,352.247406 60.430893,352.526459 60.430893,352.526459 
	C53.109261,345.253418 45.774075,337.993896 38.481274,330.692047 
	C37.437832,329.647339 36.599369,328.397949 35.372917,327.082397 
	C35.079788,326.921539 35.064728,326.961975 35.026241,326.608063 
	C33.471962,324.118683 31.956173,321.983185 30.440388,319.847717 
	C30.300028,319.435547 30.159668,319.023346 29.872395,318.084534 
	C29.566301,317.254242 29.316204,317.084503 28.975193,317.048676 
	C28.716396,316.526520 28.457602,316.004364 28.011181,314.989777 
	C27.575031,314.270935 27.326504,314.044556 27.077976,313.818146 
	C27.077978,313.818146 26.991629,313.394073 26.892006,312.956970 
	C26.700098,312.162689 26.473700,311.944824 26.113192,311.866272 
	C26.113192,311.866272 26.125580,311.981049 26.113113,311.565979 
	C12.421726,283.282684 8.928441,254.069748 16.256947,224.024643 
	C19.254381,211.735901 24.766768,200.060608 29.135029,188.106232 
	C29.135031,188.106232 29.138693,188.100037 29.147335,188.117493 
z"/>
<path fill="#FCE9CF" opacity="1.000000" stroke="none" 
	d="
M28.766357,188.105774 
	C24.766768,200.060608 19.254381,211.735901 16.256947,224.024643 
	C8.928441,254.069748 12.421726,283.282684 26.130558,311.510925 
	C21.035891,310.889069 21.578039,305.963684 20.075407,302.674011 
	C14.483431,290.431641 12.292027,277.223175 10.325499,264.055634 
	C9.301372,257.198273 8.168582,249.942780 9.340900,243.263077 
	C11.402913,231.514038 14.884287,219.973312 18.387205,208.533951 
	C20.349154,202.126862 23.505627,196.079697 26.243376,189.923492 
	C26.586960,189.150879 27.661709,188.703415 28.766357,188.105774 
z"/>
<path fill="#FBE7CF" opacity="1.000000" stroke="none" 
	d="
M77.704330,93.033188 
	C74.285545,90.186104 72.740204,87.434296 76.116287,83.087784 
	C78.706818,79.752625 80.325607,75.589561 82.012680,71.639290 
	C87.378914,59.074341 94.886124,48.157433 105.849075,39.817234 
	C106.470779,39.344269 107.362633,39.226418 108.473267,38.870567 
	C108.817780,38.797844 108.983833,38.970661 108.958252,39.375252 
	C107.006378,42.001678 105.369995,44.589317 103.105324,46.384216 
	C91.093742,55.904186 84.761322,68.743347 80.623611,83.217926 
	C75.502319,85.511139 78.896561,89.865585 77.704330,93.033188 
z"/>
<path fill="#B17344" opacity="1.000000" stroke="none" 
	d="
M77.757256,93.398628 
	C78.896561,89.865585 75.502319,85.511139 80.578033,83.564407 
	C80.325829,85.697067 79.729103,87.524628 79.132370,89.352188 
	C79.629501,89.563194 80.126640,89.774200 80.623772,89.985207 
	C81.859520,87.772316 82.832176,85.342712 84.417656,83.417900 
	C85.599167,81.983528 87.573410,81.202126 89.194603,80.129921 
	C86.411415,84.745216 83.628227,89.360512 80.769501,94.310928 
	C80.693962,94.646057 80.715179,94.680557 80.427597,94.772659 
	C79.452728,95.229851 78.765434,95.594933 78.078140,95.960022 
	C77.988815,95.228035 77.899498,94.496056 77.757256,93.398628 
z"/>
<path fill="#FBF0E0" opacity="1.000000" stroke="none" 
	d="
M187.124146,373.061493 
	C193.190414,369.714172 199.487000,366.682434 206.116226,363.645020 
	C206.707458,364.053253 207.290848,364.659241 207.176498,364.852600 
	C205.106552,368.352356 191.539322,374.135040 187.124146,373.061493 
z"/>
<path fill="#FBF0E0" opacity="1.000000" stroke="none" 
	d="
M30.041262,319.928558 
	C31.956173,321.983185 33.471962,324.118683 35.037857,326.596741 
	C28.238665,325.990875 26.690832,324.021210 30.041262,319.928558 
z"/>
<path fill="#C58B55" opacity="1.000000" stroke="none" 
	d="
M156.816116,102.764870 
	C157.834320,101.395866 158.852524,100.026863 160.011795,98.363983 
	C160.152863,98.070099 160.536331,98.012344 160.805313,98.032852 
	C161.074295,98.053368 161.234528,98.175301 161.169571,98.526459 
	C159.675110,100.173370 158.245621,101.469124 156.816116,102.764870 
z"/>
<path fill="#FCE9CF" opacity="1.000000" stroke="none" 
	d="
M78.053009,96.287445 
	C78.765434,95.594933 79.452728,95.229851 80.425171,94.792130 
	C80.197296,95.889847 79.684273,97.060204 79.171249,98.230560 
	C78.790131,97.691994 78.409004,97.153427 78.053009,96.287445 
z"/>
<path fill="#FCE9CF" opacity="1.000000" stroke="none" 
	d="
M29.043674,317.250793 
	C29.316204,317.084503 29.566301,317.254242 29.725597,317.792480 
	C29.457083,317.904205 29.252565,317.712799 29.043674,317.250793 
z"/>
<path fill="#C58B55" opacity="1.000000" stroke="none" 
	d="
M160.966827,97.234360 
	C161.163116,96.994720 161.330353,96.985077 161.679581,97.208771 
	C161.696915,97.724457 161.487900,97.968849 161.234528,98.175301 
	C161.234528,98.175301 161.074295,98.053368 160.994492,97.990395 
	C160.914688,97.927422 160.937805,97.464363 160.966827,97.234360 
z"/>
<path fill="#FCE9CF" opacity="1.000000" stroke="none" 
	d="
M26.135208,312.101807 
	C26.473700,311.944824 26.700098,312.162689 26.789646,312.766357 
	C26.484358,312.874054 26.274464,312.648895 26.135208,312.101807 
z"/>
<path fill="#FCE9CF" opacity="1.000000" stroke="none" 
	d="
M27.115419,314.066467 
	C27.326504,314.044556 27.575031,314.270935 27.830656,314.758392 
	C27.609457,314.784546 27.381159,314.549683 27.115419,314.066467 
z"/>
<path fill="#D08A4F" opacity="1.000000" stroke="none" 
	d="
M69.667694,359.392517 
	C66.611916,357.392395 63.679569,355.247009 60.589058,352.814056 
	C60.430893,352.526459 60.714119,352.247406 61.218170,352.164490 
	C64.492920,354.372223 67.263618,356.662872 70.034317,358.953522 
	C70.034325,358.953522 69.791130,359.247223 69.667694,359.392517 
z"/>
<path fill="#E67F2B" opacity="1.000000" stroke="none" 
	d="
M70.401855,358.972626 
	C67.263618,356.662872 64.492920,354.372223 61.368011,352.033875 
	C58.101173,348.949402 54.965969,346.093414 52.322723,342.837952 
	C46.978374,336.255829 41.690834,329.606262 36.781654,322.698975 
	C33.019104,317.404999 29.507002,311.862122 26.526142,306.097656 
	C19.458265,292.429535 15.711325,277.812683 14.948419,262.405975 
	C14.103362,245.340286 15.685667,228.574661 21.179459,212.351089 
	C23.343042,205.961838 26.322289,199.849808 28.899899,193.599091 
	C29.587582,191.931458 30.163797,190.217880 30.693754,188.152374 
	C30.596315,187.779343 30.655005,187.786316 31.055214,187.722809 
	C31.936121,186.350464 32.416821,185.041641 32.897518,183.732803 
	C32.897518,183.732803 32.921467,183.398438 33.349712,183.214905 
	C36.843918,179.682327 40.217308,176.562576 42.918098,172.941208 
	C50.964714,162.151855 60.751740,153.044678 72.130333,146.256302 
	C81.007622,140.960190 91.233101,137.937012 100.791634,133.748993 
	C101.730354,133.337708 102.193390,131.840714 102.877213,130.847672 
	C102.877220,130.847672 102.925133,130.844559 103.255753,130.924774 
	C104.054184,131.016479 104.521988,131.027985 105.046661,131.167938 
	C105.191055,131.337418 105.278572,131.378448 105.366089,131.419464 
	C105.257736,131.275940 105.149384,131.132401 105.044983,130.741486 
	C105.048927,130.494110 105.014229,130.000488 105.014229,130.000488 
	C105.014229,130.000488 105.001938,130.007278 105.429298,130.035446 
	C112.219193,127.996956 118.581726,125.930313 124.944267,123.863663 
	C124.944267,123.863670 124.989655,123.953842 125.338890,123.977455 
	C127.499161,122.997055 129.310196,121.993050 131.121231,120.989044 
	C131.121231,120.989044 131.373138,120.878113 131.898834,120.930977 
	C133.285416,120.317017 134.146286,119.650185 135.007172,118.983360 
	C135.007172,118.983360 135.003754,119.006859 135.393723,119.025993 
	C140.130127,118.959534 143.512421,117.409561 144.997833,112.978546 
	C144.997833,112.978546 145.003693,113.001945 145.353546,113.012375 
	C146.452316,112.322159 147.201233,111.621513 147.950165,110.920868 
	C147.950165,110.920868 147.998398,110.976212 148.208923,110.884422 
	C148.602951,110.505623 148.786469,110.218605 148.969986,109.931595 
	C148.969986,109.931595 148.994965,109.994110 149.210175,109.898674 
	C149.615189,109.522980 149.805008,109.242729 149.994827,108.962479 
	C149.994827,108.962471 150.002365,109.005493 150.230469,108.915588 
	C150.670792,108.553215 150.882996,108.280739 151.095200,108.008270 
	C151.095200,108.008263 151.284302,107.865288 151.772202,107.820389 
	C153.132050,106.796936 154.003983,105.818390 154.875931,104.839836 
	C154.875931,104.839836 154.960281,104.960449 155.250214,104.923912 
	C155.977020,104.198387 156.413895,103.509399 156.850784,102.820404 
	C156.850784,102.820404 156.852539,102.785027 156.834320,102.774948 
	C158.245621,101.469124 159.675110,100.173370 161.169571,98.526459 
	C161.487900,97.968849 161.696915,97.724457 161.930878,97.209564 
	C162.000183,96.977013 161.999588,97.004837 162.231079,96.915619 
	C162.655518,96.547081 162.848465,96.267746 163.041412,95.988419 
	C163.107132,95.690979 163.251328,95.438362 163.931061,95.016975 
	C164.591629,94.491829 164.795151,94.180260 164.998688,93.868683 
	C165.129044,93.614731 165.301727,93.393883 165.968323,92.995934 
	C166.600983,92.459152 166.782043,92.132568 166.963104,91.805984 
	C177.234955,78.614861 183.886993,63.750370 187.069748,47.385147 
	C187.821777,43.518314 187.767212,39.456455 187.698578,35.490978 
	C187.677460,34.271278 186.377228,33.073719 185.188828,31.350044 
	C174.077805,26.867336 163.606781,29.670668 153.236420,31.948170 
	C148.994553,32.879753 145.048706,35.159256 140.968201,36.825554 
	C140.968201,36.825554 140.653259,37.022751 140.057556,37.015289 
	C136.662949,38.716724 133.864075,40.425625 131.065186,42.134525 
	C131.065186,42.134525 131.015625,42.066319 130.666748,42.030968 
	C128.890579,43.024651 127.463280,44.053684 126.035973,45.082718 
	C126.035973,45.082714 126.005997,45.015198 125.669800,45.005154 
	C123.575203,46.698696 121.816811,48.402283 120.058426,50.105865 
	C120.058426,50.105869 120.017334,50.042244 119.819801,50.127136 
	C119.417732,50.470329 119.213196,50.728630 119.008659,50.986931 
	C119.008659,50.986927 119.003098,51.006500 118.686859,51.037663 
	C117.947746,51.458393 117.524872,51.847961 117.101997,52.237534 
	C117.101997,52.237534 117.086411,52.098652 116.834106,52.178108 
	C115.721954,53.081223 114.862099,53.904881 114.002251,54.728535 
	C113.856697,54.810928 113.711136,54.893318 112.998795,55.020187 
	C111.980125,55.445969 111.528236,55.827278 111.076340,56.208588 
	C111.076340,56.208584 111.050453,56.085789 110.850815,56.173492 
	C110.458702,56.564064 110.266235,56.866932 110.073761,57.169800 
	C110.073761,57.169796 110.078812,57.046825 109.882706,57.146370 
	C109.456604,57.701340 109.226601,58.156765 108.996597,58.612190 
	C108.996597,58.612194 108.635727,58.936588 108.025452,58.991138 
	C106.290474,60.052929 105.165771,61.060173 104.041069,62.067413 
	C104.041069,62.067410 103.995659,62.013218 103.680206,62.054390 
	C99.916954,66.478752 96.469154,70.861946 93.021362,75.245132 
	C92.977242,75.519966 92.844391,75.741623 92.064705,76.003296 
	C91.005066,77.079414 90.503532,78.062347 90.002007,79.045273 
	C90.002007,79.045273 89.986946,78.995049 89.775482,79.105164 
	C89.390190,79.512207 89.216354,79.809120 89.042526,80.106033 
	C89.042519,80.106033 89.126808,80.062775 89.160706,80.096344 
	C87.573410,81.202126 85.599167,81.983528 84.417656,83.417900 
	C82.832176,85.342712 81.859520,87.772316 80.623772,89.985207 
	C80.126640,89.774200 79.629501,89.563194 79.132370,89.352188 
	C79.729103,87.524628 80.325829,85.697067 80.968140,83.523026 
	C84.761322,68.743347 91.093742,55.904186 103.105324,46.384216 
	C105.369995,44.589317 107.006378,42.001678 109.044647,39.458298 
	C121.930710,29.777708 135.207214,21.469589 151.854004,19.246601 
	C157.936417,18.723330 163.427475,17.843523 168.946716,17.209063 
	C178.953873,16.058693 188.962021,14.849067 199.001511,14.076676 
	C203.951950,13.695813 206.293427,16.011393 205.917969,20.896715 
	C205.286957,29.106552 204.467789,37.342571 203.019547,45.440922 
	C199.447403,65.415894 191.654221,83.717186 180.157928,100.452957 
	C179.476730,101.444611 179.443253,102.881210 179.108368,104.110756 
	C179.108368,104.110756 179.096252,103.992271 178.758209,104.034615 
	C173.399979,109.266479 168.361206,114.438438 163.402405,119.685974 
	C163.080078,120.027069 163.372177,120.948799 163.378464,121.600433 
	C163.275345,121.928123 163.172226,122.255821 162.604828,122.865204 
	C161.356171,126.162979 161.396805,126.040855 164.489716,127.069801 
	C171.671509,129.459045 178.782791,132.062042 185.979019,134.405228 
	C189.079636,135.414856 192.319992,135.995377 195.496857,136.770828 
	C195.496857,136.770828 195.772141,136.700714 195.912506,137.150055 
	C200.367020,142.363998 205.737518,145.093323 212.093155,145.924530 
	C212.093155,145.924530 211.999084,145.974152 212.035034,146.291946 
	C216.257446,149.629700 220.443909,152.649673 224.630356,155.669632 
	C224.630356,155.669632 224.833084,155.663162 224.998688,156.010437 
	C225.476044,156.554398 225.787811,156.751083 226.099564,156.947769 
	C226.099564,156.947769 226.012360,156.950043 226.051498,157.264145 
	C226.775116,158.015533 227.459595,158.452820 228.144089,158.890106 
	C228.144089,158.890106 228.023163,158.968582 228.053696,159.276352 
	C230.442917,161.679443 232.801620,163.774765 235.160309,165.870087 
	C235.160309,165.870087 235.106949,166.010986 235.072495,166.313782 
	C235.981430,168.301605 236.713165,170.155533 237.901642,171.645004 
	C247.639618,183.849289 255.789276,196.854492 260.205719,212.048462 
	C265.257568,229.428528 269.608521,246.764328 267.094177,265.172119 
	C264.769775,282.189117 259.830841,298.213257 251.388870,313.198212 
	C250.077194,315.526489 249.839005,318.459564 249.104401,321.112946 
	C249.104401,321.112946 249.046844,320.987030 248.720230,321.040009 
	C245.151672,322.311401 243.588272,324.567596 244.068954,328.087646 
	C244.068954,328.087646 244.025879,327.997040 243.693741,328.008606 
	C237.919739,333.894012 232.468201,339.758942 227.068787,345.671539 
	C226.834824,345.927734 227.080383,346.621826 227.102570,347.111938 
	C227.102570,347.111938 227.009232,347.057678 226.807037,347.141052 
	C226.422073,347.518433 226.239319,347.812408 226.056580,348.106384 
	C226.056580,348.106384 226.088669,348.067383 226.102829,348.089874 
	C224.298431,348.746765 222.041504,348.900879 220.733490,350.094666 
	C213.056122,357.101685 204.269928,362.275269 194.698883,366.071991 
	C185.823486,369.592743 176.968781,373.471375 167.747757,375.741425 
	C154.791153,378.931122 141.453430,380.430969 128.091446,378.023560 
	C118.861916,376.360687 109.441269,375.066223 100.601952,372.119507 
	C91.265259,369.006958 82.519180,364.124573 73.507919,360.031128 
	C72.620743,359.628174 71.683426,359.335571 70.401855,358.972626 
M209.975677,165.043655 
	C209.975677,165.043655 209.903702,165.141998 209.748276,164.628830 
	C209.448227,164.456329 209.148193,164.283829 208.947235,164.145523 
	C208.947235,164.145523 208.845779,164.171875 208.885208,163.422516 
	C207.555069,162.654938 206.224930,161.887360 204.916092,161.130814 
	C204.916092,161.130814 204.881271,161.140015 204.896408,160.405090 
	C202.517761,159.041733 200.139099,157.678375 197.882278,156.245056 
	C197.882278,156.245056 197.767670,156.298813 197.661499,155.563751 
	C196.386841,155.145035 195.112183,154.726318 193.801086,154.264557 
	C193.801086,154.264557 193.748093,154.283875 193.656876,153.557343 
	C190.019592,152.078293 186.382309,150.599243 182.386444,149.105194 
	C182.386444,149.105194 182.059509,148.957153 181.905640,148.252991 
	C178.524628,147.205688 175.143631,146.158401 171.392822,145.066864 
	C171.392822,145.066864 171.052856,144.914749 170.858795,144.194382 
	C170.024933,143.763824 169.235657,143.120514 168.350449,142.934998 
	C157.136765,140.584976 145.911011,139.798904 134.391968,140.857178 
	C115.524345,142.590622 97.686279,147.328369 81.147476,156.599945 
	C79.474030,157.538055 78.414703,159.571655 76.990387,161.031189 
	C76.990387,161.031189 77.084686,161.072968 76.348686,161.018829 
	C75.605316,161.730743 74.861946,162.442657 74.021317,163.017715 
	C74.021317,163.017715 74.144371,163.131943 73.392899,163.032150 
	C70.573761,165.690155 67.754623,168.348145 64.747391,171.181839 
	C64.747391,171.181839 64.493401,171.223587 63.724102,171.140289 
	C62.278469,172.868301 60.832832,174.596298 59.383545,176.276138 
	C59.383545,176.276138 59.341019,176.299026 58.630199,176.329529 
	C57.191235,178.303635 55.752274,180.277756 54.249508,182.254349 
	C54.249508,182.254349 54.227814,182.194290 53.634476,182.403381 
	C53.516624,182.790085 53.398773,183.176773 53.360943,183.810699 
	C53.360943,183.810699 53.218212,184.027817 52.498901,184.090683 
	C52.109600,184.816116 51.720299,185.541565 51.345367,186.183472 
	C51.345367,186.183472 51.301289,186.253799 50.589859,186.328827 
	C46.299294,190.791321 42.410610,195.473526 41.888130,202.594803 
	C41.612194,203.059036 41.336262,203.523285 40.585869,204.212616 
	C40.431881,204.516205 40.277893,204.819809 40.152496,205.029770 
	C40.152496,205.029770 40.169308,205.126221 39.491032,205.313721 
	C36.617641,208.458954 34.163139,211.766403 35.233582,216.714798 
	C35.233582,216.714798 35.089931,216.973953 34.336010,217.111359 
	C33.830776,218.076004 33.132084,218.987442 32.849796,220.013428 
	C29.476154,232.274948 28.494970,244.779327 28.966919,257.457825 
	C29.612225,274.793304 33.860912,291.166473 41.888084,306.521484 
	C42.791233,308.249146 44.686077,309.458374 46.098751,310.996307 
	C46.098751,310.996307 46.097126,310.907990 46.009682,311.641907 
	C47.111805,313.063507 48.213932,314.485138 49.653522,316.114960 
	C49.869236,316.285370 50.012077,316.503510 50.016365,317.534027 
	C51.013950,318.689362 52.011536,319.844666 52.999218,321.001221 
	C52.999218,321.001221 53.000114,320.991241 52.968933,321.725433 
	C54.660637,323.477264 56.352341,325.229095 57.999794,327.000916 
	C57.999794,327.000916 58.022171,326.957825 58.033310,327.590820 
	C58.457150,327.975952 58.880989,328.361053 59.145134,328.850098 
	C59.145134,328.850098 59.255150,328.694550 59.367489,329.312286 
	C59.916107,329.542084 60.464725,329.771912 60.997864,330.002441 
	C60.997864,330.002441 60.997723,329.987061 61.060940,330.638733 
	C61.711979,331.093262 62.363018,331.547791 62.996651,332.003265 
	C62.996651,332.003265 62.995213,331.985779 63.201023,332.469025 
	C63.495335,332.644592 63.789642,332.820160 64.495056,333.187439 
	C64.751717,333.371521 64.921852,333.615875 65.026848,334.566467 
	C65.459328,334.945801 65.891808,335.325134 66.094284,335.906799 
	C66.094284,335.906799 66.289604,335.670776 66.385643,336.315674 
	C66.969292,336.491394 67.552933,336.667114 68.028648,336.962769 
	C68.028648,336.962769 68.099640,336.817871 68.315758,337.388092 
	C68.859589,337.608002 69.403427,337.827911 70.437065,338.295624 
	C70.990822,338.768494 71.544586,339.241364 72.089233,340.480255 
	C73.417191,341.299255 74.745140,342.118256 75.991943,342.979919 
	C75.991943,342.979919 76.059395,342.917053 76.068398,343.635681 
	C77.997169,344.807434 79.925949,345.979218 82.079437,347.783630 
	C83.046814,348.197632 84.014198,348.611603 85.399887,349.514191 
	C86.218002,349.731445 87.036118,349.948730 88.075699,350.842102 
	C91.069092,351.876801 94.062485,352.911499 96.993538,353.988403 
	C96.993538,353.988403 97.047287,353.933350 97.146828,354.707977 
	C98.582947,355.067017 100.019066,355.426025 101.736519,355.733215 
	C101.736519,355.733215 101.985909,355.873352 102.095184,356.624847 
	C103.282158,357.394806 104.370872,358.470428 105.671005,358.888336 
	C122.127655,364.177856 139.133087,364.917511 156.140076,363.769440 
	C163.149673,363.296234 170.001801,360.490143 177.425308,358.250397 
	C180.279587,356.976562 183.133881,355.702728 186.577972,354.804413 
	C191.796356,354.437927 196.146286,352.489960 199.189926,347.553467 
	C199.189926,347.553467 199.227539,347.146088 199.631546,347.044891 
	C199.631546,347.044891 199.977768,346.813385 200.655121,346.897278 
	C202.056290,346.238831 203.457458,345.580353 205.586807,344.912598 
	C210.107620,342.019012 215.841141,340.378021 216.990891,333.999878 
	C216.990891,333.999878 216.936981,333.925751 217.682510,333.981750 
	C218.303482,333.217407 218.924454,332.453064 219.617447,331.677673 
	C219.617447,331.677673 219.689621,331.667633 220.317169,331.611847 
	C220.534897,331.059906 220.752609,330.507935 220.997269,330.002167 
	C220.997269,330.002167 220.952454,329.972717 221.654663,329.950073 
	C224.831223,327.540833 228.840851,325.795197 228.877441,320.980103 
	C228.877441,320.980103 228.855667,320.881256 229.578857,320.872284 
	C230.043411,319.899567 230.507965,318.926880 231.001770,317.997864 
	C231.001770,317.997864 230.952957,317.978638 231.686264,317.935089 
	C232.781952,315.942413 233.877640,313.949738 234.999878,312.000244 
	C234.999878,312.000244 234.953873,311.978668 235.665497,311.904205 
	C236.084900,310.911041 236.504303,309.917908 236.939301,309.005310 
	C236.939301,309.005310 236.904022,308.927216 237.650772,308.911774 
	C238.761444,306.263672 239.872131,303.615570 241.002594,300.999939 
	C241.002594,300.999939 240.966568,300.988281 241.635269,300.920898 
	C242.020294,299.575226 242.405334,298.229584 242.953278,296.219025 
	C243.607101,294.809509 244.260925,293.399963 245.644913,291.904449 
	C246.737625,289.773224 248.197006,287.750122 248.862625,285.492950 
	C252.739243,272.346619 253.228287,258.840149 253.084442,245.232880 
	C252.958527,233.318527 250.402252,221.988205 245.811844,211.096466 
	C244.713654,208.490707 242.744003,206.252213 241.043213,203.294388 
	C240.746826,202.823013 240.450424,202.351654 240.088531,201.119308 
	C238.413193,198.061111 236.737854,195.002930 235.017029,191.228516 
	C233.370514,189.124451 231.723999,187.020386 229.817841,184.523743 
	C229.617813,184.277527 229.383377,184.070206 229.063217,183.150986 
	C227.646255,181.824036 226.229294,180.497086 224.951385,178.983826 
	C224.951385,178.983826 224.827103,179.178299 224.894928,178.456253 
	C223.886642,177.671585 222.878342,176.886917 221.918259,176.019379 
	C221.918259,176.019379 221.928009,176.114746 221.787186,175.605469 
	C221.504929,175.412170 221.222656,175.218887 220.997757,175.002701 
	C220.997757,175.002701 220.974060,175.059723 220.793716,174.568985 
	C220.500122,174.399185 220.206528,174.229401 219.987625,174.083374 
	C219.987625,174.083374 219.912231,174.104858 219.910706,173.419403 
	C219.231903,172.980194 218.553116,172.541000 217.988922,172.020844 
	C217.988922,172.020844 217.898178,172.127853 217.921585,171.409073 
	C215.788101,169.675461 213.654617,167.941849 211.257385,166.190857 
	C211.257385,166.190857 211.049606,166.027496 210.804153,165.553329 
	C210.492203,165.402664 210.180267,165.251999 209.975677,165.043655 
z"/>
<path fill="#D08A4F" opacity="1.000000" stroke="none" 
	d="
M249.424805,320.985535 
	C249.839005,318.459564 250.077194,315.526489 251.388870,313.198212 
	C259.830841,298.213257 264.769775,282.189117 267.094177,265.172119 
	C269.608521,246.764328 265.257568,229.428528 260.205719,212.048462 
	C255.789276,196.854492 247.639618,183.849289 237.901642,171.645004 
	C236.713165,170.155533 235.981430,168.301605 235.085663,166.240021 
	C249.162750,179.771622 258.508179,196.544891 263.522980,215.434616 
	C266.610413,227.064362 268.657684,239.122192 269.663177,251.114319 
	C270.923828,266.150177 267.939056,280.965363 262.475281,294.981598 
	C258.996674,303.905212 254.039413,312.252472 249.424805,320.985535 
z"/>
<path fill="#D08A4F" opacity="1.000000" stroke="none" 
	d="
M179.421936,103.985641 
	C179.443253,102.881210 179.476730,101.444611 180.157928,100.452957 
	C191.654221,83.717186 199.447403,65.415894 203.019547,45.440922 
	C204.467789,37.342571 205.286957,29.106552 205.917969,20.896715 
	C206.293427,16.011393 203.951950,13.695813 199.001511,14.076676 
	C188.962021,14.849067 178.953873,16.058693 168.946716,17.209063 
	C163.427475,17.843523 157.936417,18.723330 152.201416,19.205696 
	C168.010330,14.133967 184.391205,11.636934 201.137451,11.895157 
	C206.080154,11.971372 207.884109,14.235031 208.087646,19.662460 
	C208.655838,34.812035 205.272903,49.313717 200.641785,63.566395 
	C198.798935,69.237961 196.425293,74.737061 194.241119,80.667374 
	C189.371124,88.633568 184.553314,96.247055 179.421936,103.985641 
z"/>
<path fill="#D08A4F" opacity="1.000000" stroke="none" 
	d="
M195.266266,136.487671 
	C192.319992,135.995377 189.079636,135.414856 185.979019,134.405228 
	C178.782791,132.062042 171.671509,129.459045 164.489716,127.069801 
	C161.396805,126.040855 161.356171,126.162979 162.473297,123.088577 
	C166.835587,124.740562 170.844666,126.501167 174.899292,128.149811 
	C181.595963,130.872742 188.322021,133.523392 195.266266,136.487671 
z"/>
<path fill="#D08A4F" opacity="1.000000" stroke="none" 
	d="
M227.413971,346.989380 
	C227.080383,346.621826 226.834824,345.927734 227.068787,345.671539 
	C232.468201,339.758942 237.919739,333.894012 243.729919,328.043365 
	C238.640625,334.333282 233.182983,340.600037 227.413971,346.989380 
z"/>
<path fill="#D08A4F" opacity="1.000000" stroke="none" 
	d="
M163.674591,121.432846 
	C163.372177,120.948799 163.080078,120.027069 163.402405,119.685974 
	C168.361206,114.438438 173.399979,109.266479 178.777954,104.091286 
	C174.080734,109.825500 169.025726,115.545380 163.674591,121.432846 
z"/>
<path fill="#D08A4F" opacity="1.000000" stroke="none" 
	d="
M211.941040,145.618286 
	C205.737518,145.093323 200.367020,142.363998 196.029022,137.231277 
	C201.266434,139.679443 206.527664,142.495743 211.941040,145.618286 
z"/>
<path fill="#D08A4F" opacity="1.000000" stroke="none" 
	d="
M224.494171,155.347580 
	C220.443909,152.649673 216.257446,149.629700 212.070740,146.252533 
	C216.166336,148.938721 220.262161,151.982117 224.494171,155.347580 
z"/>
<path fill="#D08A4F" opacity="1.000000" stroke="none" 
	d="
M235.088470,165.541275 
	C232.801620,163.774765 230.442917,161.679443 228.099518,159.220703 
	C230.415421,160.975693 232.716034,163.094070 235.088470,165.541275 
z"/>
<path fill="#D08A4F" opacity="1.000000" stroke="none" 
	d="
M244.378113,327.951782 
	C243.588272,324.567596 245.151672,322.311401 248.760254,321.096863 
	C247.647018,323.339142 246.167130,325.577515 244.378113,327.951782 
z"/>
<path fill="#D08A4F" opacity="1.000000" stroke="none" 
	d="
M228.088348,158.579987 
	C227.459595,158.452820 226.775116,158.015533 226.083679,157.234711 
	C226.728683,157.350739 227.380646,157.810303 228.088348,158.579987 
z"/>
<path fill="#D08A4F" opacity="1.000000" stroke="none" 
	d="
M226.318542,348.036652 
	C226.239319,347.812408 226.422073,347.518433 226.860779,347.145996 
	C226.938004,347.367340 226.759277,347.667114 226.318542,348.036652 
z"/>
<path fill="#D08A4F" opacity="1.000000" stroke="none" 
	d="
M226.019623,156.666107 
	C225.787811,156.751083 225.476044,156.554398 225.059631,156.091492 
	C225.283203,156.011673 225.611450,156.198059 226.019623,156.666107 
z"/>
<path fill="#B17344" opacity="1.000000" stroke="none" 
	d="
M141.354095,36.870522 
	C145.048706,35.159256 148.994553,32.879753 153.236420,31.948170 
	C163.606781,29.670668 174.077805,26.867336 184.834656,31.154295 
	C170.094772,29.675974 155.713318,31.674986 141.354095,36.870522 
z"/>
<path fill="#B17344" opacity="1.000000" stroke="none" 
	d="
M93.335709,75.092484 
	C96.469154,70.861946 99.916954,66.478752 103.712921,62.067726 
	C100.590744,66.339874 97.120399,70.639862 93.335709,75.092484 
z"/>
<path fill="#B17344" opacity="1.000000" stroke="none" 
	d="
M131.427521,42.114231 
	C133.864075,40.425625 136.662949,38.716724 139.873383,37.039707 
	C137.453232,38.745708 134.621552,40.419823 131.427521,42.114231 
z"/>
<path fill="#B17344" opacity="1.000000" stroke="none" 
	d="
M120.393036,50.061142 
	C121.816811,48.402283 123.575203,46.698696 125.704498,45.017803 
	C124.292816,46.699139 122.510231,48.357777 120.393036,50.061142 
z"/>
<path fill="#B17344" opacity="1.000000" stroke="none" 
	d="
M126.369675,45.027782 
	C127.463280,44.053684 128.890579,43.024651 130.708893,42.031891 
	C129.634399,43.036388 128.168884,44.004620 126.369675,45.027782 
z"/>
<path fill="#B17344" opacity="1.000000" stroke="none" 
	d="
M104.370132,62.011032 
	C105.165771,61.060173 106.290474,60.052929 107.793640,59.062771 
	C107.014481,60.038116 105.856842,60.996384 104.370132,62.011032 
z"/>
<path fill="#B17344" opacity="1.000000" stroke="none" 
	d="
M114.322952,54.709389 
	C114.862099,53.904881 115.721954,53.081223 116.903259,52.188210 
	C116.364349,52.975983 115.503998,53.833111 114.322952,54.709389 
z"/>
<path fill="#B17344" opacity="1.000000" stroke="none" 
	d="
M90.287323,78.896858 
	C90.503532,78.062347 91.005066,77.079414 91.877571,76.066971 
	C91.689903,76.941116 91.131264,77.844780 90.287323,78.896858 
z"/>
<path fill="#B17344" opacity="1.000000" stroke="none" 
	d="
M111.386658,56.197361 
	C111.528236,55.827278 111.980125,55.445969 112.749588,55.049255 
	C112.610435,55.417942 112.153702,55.802040 111.386658,56.197361 
z"/>
<path fill="#B17344" opacity="1.000000" stroke="none" 
	d="
M109.261276,58.550400 
	C109.226601,58.156765 109.456604,57.701340 109.942627,57.160400 
	C109.974419,57.546127 109.750191,58.017372 109.261276,58.550400 
z"/>
<path fill="#B17344" opacity="1.000000" stroke="none" 
	d="
M117.405235,52.227638 
	C117.524872,51.847961 117.947746,51.458393 118.676712,51.036743 
	C118.558022,51.409023 118.133247,51.813389 117.405235,52.227638 
z"/>
<path fill="#B17344" opacity="1.000000" stroke="none" 
	d="
M110.358368,57.114277 
	C110.266235,56.866932 110.458702,56.564064 110.913559,56.173203 
	C110.998283,56.409721 110.820618,56.734238 110.358368,57.114277 
z"/>
<path fill="#B17344" opacity="1.000000" stroke="none" 
	d="
M119.267059,50.929695 
	C119.213196,50.728630 119.417732,50.470329 119.857178,50.121059 
	C119.903221,50.310879 119.714340,50.591671 119.267059,50.929695 
z"/>
<path fill="#C58B55" opacity="1.000000" stroke="none" 
	d="
M164.724670,93.958191 
	C164.795151,94.180260 164.591629,94.491829 164.118927,94.900909 
	C164.050034,94.681503 164.250336,94.364594 164.724670,93.958191 
z"/>
<path fill="#C58B55" opacity="1.000000" stroke="none" 
	d="
M162.790100,96.068893 
	C162.848465,96.267746 162.655518,96.547081 162.217987,96.914215 
	C162.161865,96.717796 162.350327,96.433578 162.790100,96.068893 
z"/>
<path fill="#C58B55" opacity="1.000000" stroke="none" 
	d="
M166.700562,91.917175 
	C166.782043,92.132568 166.600983,92.459152 166.152649,92.892822 
	C166.069611,92.676056 166.253815,92.352211 166.700562,91.917175 
z"/>
<path fill="#B17344" opacity="1.000000" stroke="none" 
	d="
M89.310059,80.032791 
	C89.216354,79.809120 89.390190,79.512207 89.801437,79.101379 
	C89.885086,79.311501 89.731339,79.635521 89.310059,80.032791 
z"/>
<path fill="#D08A4F" opacity="1.000000" stroke="none" 
	d="
M102.492508,130.872772 
	C102.193390,131.840714 101.730354,133.337708 100.791634,133.748993 
	C91.233101,137.937012 81.007622,140.960190 72.130333,146.256302 
	C60.751740,153.044678 50.964714,162.151855 42.918098,172.941208 
	C40.217308,176.562576 36.843918,179.682327 33.420506,183.062988 
	C47.819851,158.285690 69.647614,142.289597 96.343452,132.391800 
	C98.195007,131.705307 100.183159,131.387253 102.492508,130.872772 
z"/>
<path fill="#C58B55" opacity="1.000000" stroke="none" 
	d="
M124.543915,123.854904 
	C118.581726,125.930313 112.219193,127.996956 105.422661,130.037903 
	C111.373627,127.956841 117.758591,125.901489 124.543915,123.854904 
z"/>
<path fill="#C58B55" opacity="1.000000" stroke="none" 
	d="
M144.656067,113.048958 
	C143.512421,117.409561 140.130127,118.959534 135.381927,119.024765 
	C138.091537,117.042725 141.202927,115.081047 144.656067,113.048958 
z"/>
<path fill="#C58B55" opacity="1.000000" stroke="none" 
	d="
M130.758102,120.984680 
	C129.310196,121.993050 127.499161,122.997055 125.294853,123.952789 
	C126.732712,122.929779 128.563843,121.955055 130.758102,120.984680 
z"/>
<path fill="#D08A4F" opacity="1.000000" stroke="none" 
	d="
M32.610062,183.931488 
	C32.416821,185.041641 31.936121,186.350464 31.084171,187.728699 
	C31.249479,186.575470 31.786039,185.352829 32.610062,183.931488 
z"/>
<path fill="#C58B55" opacity="1.000000" stroke="none" 
	d="
M154.543747,104.897156 
	C154.003983,105.818390 153.132050,106.796936 151.890625,107.825684 
	C152.417938,106.902084 153.314758,105.928276 154.543747,104.897156 
z"/>
<path fill="#C58B55" opacity="1.000000" stroke="none" 
	d="
M147.634583,110.975937 
	C147.201233,111.621513 146.452316,112.322159 145.341660,113.010559 
	C145.759628,112.342537 146.539307,111.686768 147.634583,110.975937 
z"/>
<path fill="#C58B55" opacity="1.000000" stroke="none" 
	d="
M134.675354,119.011139 
	C134.146286,119.650185 133.285416,120.317017 132.036209,120.939499 
	C132.546432,120.276413 133.444977,119.657661 134.675354,119.011139 
z"/>
<path fill="#C58B55" opacity="1.000000" stroke="none" 
	d="
M156.534271,102.865433 
	C156.413895,103.509399 155.977020,104.198387 155.190002,104.881577 
	C155.299194,104.220673 155.758484,103.565567 156.534271,102.865433 
z"/>
<path fill="#C58B55" opacity="1.000000" stroke="none" 
	d="
M104.698898,129.978180 
	C105.014229,130.000488 105.048927,130.494110 105.025833,130.747772 
	C105.002739,131.001419 104.989792,131.039474 104.989792,131.039474 
	C104.521988,131.027985 104.054184,131.016479 103.239395,130.941788 
	C103.389458,130.571030 103.886513,130.263458 104.698898,129.978180 
z"/>
<path fill="#C58B55" opacity="1.000000" stroke="none" 
	d="
M150.822998,108.053001 
	C150.882996,108.280739 150.670792,108.553215 150.209625,108.909103 
	C150.157379,108.694260 150.354095,108.395996 150.822998,108.053001 
z"/>
<path fill="#C58B55" opacity="1.000000" stroke="none" 
	d="
M149.735199,109.025253 
	C149.805008,109.242729 149.615189,109.522980 149.178925,109.886154 
	C149.113495,109.675385 149.294525,109.381699 149.735199,109.025253 
z"/>
<path fill="#C58B55" opacity="1.000000" stroke="none" 
	d="
M148.706085,109.997009 
	C148.786469,110.218605 148.602951,110.505623 148.172424,110.880547 
	C148.097656,110.666458 148.269913,110.364449 148.706085,109.997009 
z"/>
<path fill="#F7F7F6" opacity="1.000000" stroke="none" 
	d="
M199.977753,346.813385 
	C199.977768,346.813385 199.631546,347.044891 199.000305,347.045715 
	C190.687820,346.418091 185.936203,353.873444 177.842819,353.806458 
	C171.467850,353.753784 165.187210,358.916901 158.636627,359.610992 
	C148.610504,360.673370 138.364136,360.300171 128.258194,359.719543 
	C122.407494,359.383331 116.628136,357.536133 110.854630,356.204376 
	C105.505081,354.970428 100.206024,353.517548 94.906616,352.152130 
	C94.928505,352.143188 94.895012,352.143799 94.886215,351.788269 
	C91.138954,347.345856 86.665741,344.853882 80.975433,345.015137 
	C80.984726,345.006317 80.974945,345.035156 80.953613,344.684113 
	C80.825470,344.020874 80.813263,343.600983 80.598152,343.412109 
	C73.342583,337.040771 66.074379,330.683655 58.761936,324.377899 
	C58.552849,324.197601 57.844025,324.596802 57.362785,324.640869 
	C57.357346,324.555969 57.379791,324.387329 57.540161,324.034729 
	C57.010746,323.295166 56.320969,322.908203 55.562199,322.533081 
	C55.493206,322.544861 55.353264,322.541382 55.494370,322.186096 
	C52.784996,316.161957 50.004692,310.456421 47.064789,304.834290 
	C43.974060,298.923706 39.957550,293.373230 37.709366,287.171021 
	C32.492775,272.779816 31.814312,257.583862 33.224670,242.561905 
	C34.103760,233.198578 37.167114,224.018875 39.510277,214.823044 
	C40.775963,209.855804 42.588310,205.027847 44.487831,200.048401 
	C46.109531,198.513809 47.472008,197.126984 48.672691,195.611938 
	C54.480976,188.282913 59.394474,179.970291 66.251686,173.819748 
	C73.997566,166.872147 82.159142,160.412170 92.226685,155.871292 
	C101.955177,151.483353 111.989159,148.565598 121.983826,146.453781 
	C132.755310,144.177811 144.249786,145.364288 155.424271,144.924240 
	C157.971146,144.823944 160.499252,144.247314 163.358109,143.909393 
	C164.101990,144.012558 164.523758,144.096237 165.027771,144.518250 
	C166.781067,145.856735 168.364822,147.060028 170.138245,147.821808 
	C177.759247,151.095444 185.610214,153.882462 193.051086,157.515137 
	C203.905624,162.814407 213.218460,170.199234 220.724564,179.814331 
	C221.581451,180.911987 223.884781,180.880463 225.515472,181.440033 
	C225.513519,181.507568 225.484436,181.639496 225.352615,182.001007 
	C226.828247,183.898483 228.435684,185.434448 230.024384,186.987061 
	C230.005615,187.003723 230.032150,186.963257 230.009796,187.357208 
	C230.485779,189.476166 230.729492,191.330185 231.526794,192.903717 
	C234.856201,199.474564 238.278381,206.002029 241.858185,212.438843 
	C242.463806,213.527771 244.010498,214.093338 245.123688,214.914139 
	C245.124954,214.927582 245.148911,214.896210 245.089783,215.341125 
	C245.235733,218.249527 245.054581,220.821228 245.709595,223.158615 
	C249.502090,236.692230 251.389999,250.312180 248.797882,264.330048 
	C248.110031,268.049927 248.410751,271.986267 247.466156,275.617310 
	C245.977432,281.339935 244.452438,287.209991 241.798904,292.436920 
	C237.565643,300.775543 232.500473,308.704041 227.556198,316.662506 
	C225.949554,319.248657 223.559921,321.337524 221.638062,323.741486 
	C219.381302,326.564301 217.205887,329.454773 215.074173,332.373596 
	C214.259247,333.489380 213.662842,334.764740 212.608032,336.029053 
	C208.158737,339.664948 204.068253,343.239166 199.977753,346.813385 
M216.178513,256.725830 
	C216.354630,256.434326 216.285889,256.211792 216.095078,255.236267 
	C216.242935,253.858093 216.390793,252.479919 216.896698,250.345947 
	C216.922791,245.721130 217.356491,241.054459 216.887054,236.480499 
	C216.008026,227.915970 213.560455,219.799149 208.024384,212.941788 
	C208.024384,212.941788 208.106476,212.954330 207.927292,212.433578 
	C207.642944,212.207932 207.358597,211.982285 207.076309,211.364243 
	C207.076309,211.364243 206.963684,210.988358 206.999466,210.312195 
	C206.003860,209.228943 205.008255,208.145691 203.436874,206.598526 
	C202.350250,200.243134 198.262726,196.162643 192.765472,192.319672 
	C190.336258,190.687668 187.907028,189.055664 185.155869,186.833176 
	C181.453491,184.862808 177.751129,182.892456 173.437302,180.595108 
	C154.881821,172.584290 136.402710,171.990417 117.297371,181.126450 
	C112.631523,183.837875 107.965668,186.549316 103.082466,189.387054 
	C107.253464,193.500809 111.786568,192.035934 115.985512,191.410416 
	C129.270142,189.431366 142.537308,188.650284 155.451172,193.015823 
	C162.801895,195.500732 169.813690,198.988190 177.173935,202.674591 
	C180.115356,204.769165 183.056778,206.863754 186.154022,209.618988 
	C193.995834,218.255234 200.479950,227.757843 204.630997,238.731522 
	C206.430359,243.488297 208.146286,248.276627 209.878540,253.893082 
	C210.703812,259.004425 211.529083,264.115753 212.354370,269.227081 
	C213.095413,269.160370 213.836472,269.093628 214.577530,269.026917 
	C214.787277,266.345154 214.997025,263.663361 215.634445,260.262390 
	C215.704956,259.158264 215.775467,258.054108 215.954956,256.923157 
	C215.954956,256.923157 215.911072,256.819855 216.178513,256.725830 
z"/>
<path fill="#FCE9D1" opacity="1.000000" stroke="none" 
	d="
M163.035995,143.889923 
	C160.499252,144.247314 157.971146,144.823944 155.424271,144.924240 
	C144.249786,145.364288 132.755310,144.177811 121.983826,146.453781 
	C111.989159,148.565598 101.955177,151.483353 92.226685,155.871292 
	C82.159142,160.412170 73.997566,166.872147 66.251686,173.819748 
	C59.394474,179.970291 54.480976,188.282913 48.672691,195.611938 
	C47.472008,197.126984 46.109531,198.513809 44.392906,199.968811 
	C43.964184,199.977905 43.773254,199.820038 43.861729,199.484406 
	C46.400566,194.850433 48.850929,190.552124 51.301292,186.253799 
	C51.301289,186.253799 51.345367,186.183472 51.630402,186.124496 
	C52.349693,185.386292 52.783951,184.707047 53.218208,184.027817 
	C53.218212,184.027817 53.360943,183.810699 53.579094,183.536407 
	C53.940769,182.906158 54.084290,182.550232 54.227814,182.194290 
	C54.227814,182.194290 54.249508,182.254349 54.599167,182.172058 
	C56.412891,180.159515 57.876957,178.229263 59.341019,176.299026 
	C59.341019,176.299026 59.383545,176.276138 59.705017,176.247467 
	C61.515457,174.553726 63.004433,172.888657 64.493401,171.223587 
	C64.493401,171.223587 64.747391,171.181839 65.177246,171.011932 
	C68.452858,168.272003 71.298615,165.701965 74.144371,163.131943 
	C74.144371,163.131943 74.021317,163.017715 74.385422,163.048065 
	C75.527916,162.409927 76.306305,161.741455 77.084686,161.072968 
	C77.084686,161.072968 76.990387,161.031189 77.375290,161.001495 
	C81.221535,159.000107 84.610237,156.885590 88.156822,155.081467 
	C103.315254,147.370422 119.572449,143.309616 136.407471,142.329498 
	C145.223480,141.816223 154.156067,143.305191 163.035995,143.889923 
z"/>
<path fill="#FCE9D1" opacity="1.000000" stroke="none" 
	d="
M212.966858,335.967407 
	C213.662842,334.764740 214.259247,333.489380 215.074173,332.373596 
	C217.205887,329.454773 219.381302,326.564301 221.638062,323.741486 
	C223.559921,321.337524 225.949554,319.248657 227.556198,316.662506 
	C232.500473,308.704041 237.565643,300.775543 241.798904,292.436920 
	C244.452438,287.209991 245.977432,281.339935 247.466156,275.617310 
	C248.410751,271.986267 248.110031,268.049927 248.797882,264.330048 
	C251.389999,250.312180 249.502090,236.692230 245.709595,223.158615 
	C245.054581,220.821228 245.235733,218.249527 245.363770,215.576172 
	C254.893646,241.004211 253.393188,266.532959 244.914749,291.990448 
	C244.260925,293.399963 243.607101,294.809509 242.616898,296.759705 
	C241.842529,298.529663 241.404556,299.758972 240.966583,300.988281 
	C240.966568,300.988281 241.002594,300.999939 240.714645,301.182220 
	C239.252472,303.885406 238.078232,306.406311 236.904022,308.927216 
	C236.904022,308.927216 236.939301,309.005310 236.643707,309.102905 
	C235.883362,310.126556 235.418610,311.052612 234.953857,311.978668 
	C234.953873,311.978668 234.999878,312.000244 234.689728,312.130127 
	C233.237366,314.166229 232.095154,316.072418 230.952942,317.978638 
	C230.952957,317.978638 231.001770,317.997864 230.708252,318.120880 
	C229.895065,319.123016 229.375366,320.002136 228.855667,320.881256 
	C228.855667,320.881256 228.877441,320.980103 228.569519,321.058716 
	C225.825226,324.082489 223.388855,327.027618 220.952454,329.972717 
	C220.952454,329.972717 220.997269,330.002167 220.712189,330.090332 
	C220.181259,330.674866 219.935440,331.171234 219.689621,331.667633 
	C219.689621,331.667633 219.617447,331.677673 219.292725,331.719299 
	C218.290985,332.482544 217.613983,333.204132 216.936981,333.925751 
	C216.936981,333.925751 216.990891,333.999878 216.657211,334.063690 
	C215.339081,334.878845 214.354630,335.630219 213.269440,336.277954 
	C213.168701,336.174316 212.966858,335.967407 212.966858,335.967407 
z"/>
<path fill="#FCE9D1" opacity="1.000000" stroke="none" 
	d="
M44.059109,200.057480 
	C42.588310,205.027847 40.775963,209.855804 39.510277,214.823044 
	C37.167114,224.018875 34.103760,233.198578 33.224670,242.561905 
	C31.814312,257.583862 32.492775,272.779816 37.709366,287.171021 
	C39.957550,293.373230 43.974060,298.923706 47.064789,304.834290 
	C50.004692,310.456421 52.784996,316.161957 55.240944,322.060242 
	C54.230976,321.856812 53.615547,321.424042 53.000114,320.991241 
	C53.000114,320.991241 52.999218,321.001221 52.902626,320.690735 
	C51.898041,319.176636 50.990051,317.972992 50.082062,316.769348 
	C50.012077,316.503510 49.869236,316.285370 49.425842,315.668854 
	C48.164482,313.784485 47.130802,312.346252 46.097126,310.907990 
	C46.097126,310.907990 46.098751,310.996307 46.078712,310.594604 
	C45.376228,308.865204 44.728432,307.518372 44.006084,306.212738 
	C34.902527,289.758209 30.628468,272.213318 30.599428,253.330627 
	C30.580362,240.932434 32.464256,228.951904 35.089931,216.973953 
	C35.089931,216.973953 35.233582,216.714798 35.471142,216.306396 
	C37.195568,212.307388 38.682438,208.716812 40.169304,205.126221 
	C40.169308,205.126221 40.152496,205.029770 40.400738,204.998611 
	C40.786095,204.640808 40.923210,204.314163 41.060326,203.987518 
	C41.336262,203.523285 41.612194,203.059036 42.205635,202.190720 
	C42.939842,201.131104 43.356552,200.475571 43.773258,199.820038 
	C43.773254,199.820038 43.964184,199.977905 44.059109,200.057480 
z"/>
<path fill="#FCE9D1" opacity="1.000000" stroke="none" 
	d="
M94.884735,352.161072 
	C100.206024,353.517548 105.505081,354.970428 110.854630,356.204376 
	C116.628136,357.536133 122.407494,359.383331 128.258194,359.719543 
	C138.364136,360.300171 148.610504,360.673370 158.636627,359.610992 
	C165.187210,358.916901 171.467850,353.753784 177.842819,353.806458 
	C185.936203,353.873444 190.687820,346.418091 198.798294,347.096313 
	C199.227539,347.146088 199.189926,347.553467 198.762772,347.782288 
	C194.219803,350.150391 190.103989,352.289642 185.988159,354.428894 
	C183.133881,355.702728 180.279587,356.976562 176.744873,358.556458 
	C173.610001,359.194672 171.115829,359.349182 168.707657,359.888031 
	C154.110153,363.154541 139.409698,363.503113 124.715218,361.019073 
	C117.067368,359.726257 109.557892,357.614960 101.985909,355.873352 
	C101.985909,355.873352 101.736519,355.733215 101.356621,355.496033 
	C99.666908,354.817017 98.357101,354.375183 97.047287,353.933350 
	C97.047287,353.933350 96.993538,353.988403 96.911179,353.693481 
	C96.180786,352.986053 95.532761,352.573578 94.884735,352.161072 
z"/>
<path fill="#CD8D55" opacity="1.000000" stroke="none" 
	d="
M34.712971,217.042664 
	C32.464256,228.951904 30.580362,240.932434 30.599428,253.330627 
	C30.628468,272.213318 34.902527,289.758209 44.006084,306.212738 
	C44.728432,307.518372 45.376228,308.865204 46.089859,310.550446 
	C44.686077,309.458374 42.791233,308.249146 41.888084,306.521484 
	C33.860912,291.166473 29.612225,274.793304 28.966919,257.457825 
	C28.494970,244.779327 29.476154,232.274948 32.849796,220.013428 
	C33.132084,218.987442 33.830776,218.076004 34.712971,217.042664 
z"/>
<path fill="#FCE9D1" opacity="1.000000" stroke="none" 
	d="
M225.517456,181.372528 
	C223.884781,180.880463 221.581451,180.911987 220.724564,179.814331 
	C213.218460,170.199234 203.905624,162.814407 193.051086,157.515137 
	C185.610214,153.882462 177.759247,151.095444 170.138245,147.821808 
	C168.364822,147.060028 166.781067,145.856735 165.414413,144.449341 
	C167.496811,144.332962 169.274841,144.623856 171.052856,144.914749 
	C171.052856,144.914749 171.392822,145.066864 171.817047,145.365509 
	C175.514008,146.761810 178.786758,147.859482 182.059509,148.957153 
	C182.059509,148.957153 182.386444,149.105194 182.776611,149.405640 
	C186.693893,151.232025 190.220993,152.757950 193.748093,154.283875 
	C193.748093,154.283875 193.801086,154.264557 193.986801,154.564697 
	C195.370895,155.342850 196.569290,155.820831 197.767670,156.298813 
	C197.767670,156.298813 197.882278,156.245056 197.929932,156.586029 
	C200.278824,158.331345 202.580048,159.735687 204.881271,161.140015 
	C204.881271,161.140015 204.916092,161.130814 205.043381,161.416138 
	C206.395706,162.524918 207.620743,163.348404 208.845779,164.171875 
	C208.845779,164.171875 208.947235,164.145523 208.972000,164.387695 
	C209.299072,164.800568 209.601395,164.971283 209.903702,165.141998 
	C209.903702,165.141998 209.975677,165.043655 210.024902,165.326752 
	C210.399292,165.749054 210.724457,165.888275 211.049606,166.027496 
	C211.049606,166.027496 211.257385,166.190857 211.516190,166.523087 
	C213.816055,168.612823 215.857117,170.370346 217.898178,172.127853 
	C217.898178,172.127853 217.988922,172.020844 217.997635,172.365891 
	C218.641647,173.175583 219.276932,173.640213 219.912231,174.104858 
	C219.912231,174.104858 219.987625,174.083374 220.021393,174.328369 
	C220.361450,174.735489 220.667755,174.897614 220.974060,175.059723 
	C220.974060,175.059723 220.997757,175.002701 221.037811,175.272537 
	C221.361252,175.733170 221.644623,175.923965 221.928009,176.114746 
	C221.928009,176.114746 221.918259,176.019379 221.956894,176.380737 
	C222.939392,177.554153 223.883240,178.366226 224.827103,179.178299 
	C224.827103,179.178299 224.951385,178.983826 224.912201,179.367325 
	C225.087830,180.291382 225.302643,180.831955 225.517456,181.372528 
z"/>
<path fill="#CD8D55" opacity="1.000000" stroke="none" 
	d="
M170.955826,144.554565 
	C169.274841,144.623856 167.496811,144.332962 165.332153,144.110992 
	C164.523758,144.096237 164.101990,144.012558 163.358109,143.909393 
	C154.156067,143.305191 145.223480,141.816223 136.407471,142.329498 
	C119.572449,143.309616 103.315254,147.370422 88.156822,155.081467 
	C84.610237,156.885590 81.221535,159.000107 77.415283,161.034332 
	C78.414703,159.571655 79.474030,157.538055 81.147476,156.599945 
	C97.686279,147.328369 115.524345,142.590622 134.391968,140.857178 
	C145.911011,139.798904 157.136765,140.584976 168.350449,142.934998 
	C169.235657,143.120514 170.024933,143.763824 170.955826,144.554565 
z"/>
<path fill="#CD8D55" opacity="1.000000" stroke="none" 
	d="
M245.279831,291.947449 
	C253.393188,266.532959 254.893646,241.004211 245.422882,215.131256 
	C245.148911,214.896210 245.124954,214.927582 245.096664,214.550507 
	C243.629837,210.846558 242.191299,207.519684 240.858810,204.106354 
	C240.964859,204.019897 241.175156,203.844803 241.175156,203.844803 
	C242.744003,206.252213 244.713654,208.490707 245.811844,211.096466 
	C250.402252,221.988205 252.958527,233.318527 253.084442,245.232880 
	C253.228287,258.840149 252.739243,272.346619 248.862625,285.492950 
	C248.197006,287.750122 246.737625,289.773224 245.279831,291.947449 
z"/>
<path fill="#CD8D55" opacity="1.000000" stroke="none" 
	d="
M102.040543,356.249084 
	C109.557892,357.614960 117.067368,359.726257 124.715218,361.019073 
	C139.409698,363.503113 154.110153,363.154541 168.707657,359.888031 
	C171.115829,359.349182 173.610001,359.194672 176.494995,358.803833 
	C170.001801,360.490143 163.149673,363.296234 156.140076,363.769440 
	C139.133087,364.917511 122.127655,364.177856 105.671005,358.888336 
	C104.370872,358.470428 103.282158,357.394806 102.040543,356.249084 
z"/>
<path fill="#FCE9D1" opacity="1.000000" stroke="none" 
	d="
M57.368217,324.725769 
	C57.844025,324.596802 58.552849,324.197601 58.761936,324.377899 
	C66.074379,330.683655 73.342583,337.040771 80.598152,343.412109 
	C80.813263,343.600983 80.825470,344.020874 80.615669,344.640564 
	C78.885834,344.271027 77.472618,343.594025 76.059402,342.917053 
	C76.059395,342.917053 75.991943,342.979919 75.922852,342.647583 
	C74.601959,341.448242 73.350143,340.581238 72.098335,339.714233 
	C71.544586,339.241364 70.990822,338.768494 70.078751,337.890808 
	C69.180176,337.263306 68.639908,337.040588 68.099640,336.817871 
	C68.099640,336.817871 68.028648,336.962769 67.950821,336.636292 
	C67.345192,336.096802 66.817398,335.883789 66.289604,335.670776 
	C66.289604,335.670776 66.094284,335.906799 66.191467,335.508423 
	C65.860931,334.713531 65.433197,334.316986 65.005470,333.920471 
	C64.921852,333.615875 64.751717,333.371521 64.190887,332.845978 
	C63.589546,332.331604 63.292381,332.158691 62.995213,331.985779 
	C62.995213,331.985779 62.996651,332.003265 62.903915,331.722778 
	C62.206692,330.957214 61.602203,330.472137 60.997719,329.987061 
	C60.997723,329.987061 60.997864,330.002441 60.893044,329.726562 
	C60.277203,329.198608 59.766174,328.946594 59.255150,328.694550 
	C59.255150,328.694550 59.145134,328.850098 59.188629,328.507507 
	C58.828804,327.762543 58.425488,327.360199 58.022171,326.957825 
	C58.022171,326.957825 57.999794,327.000916 58.001244,326.692505 
	C57.791199,325.831329 57.579708,325.278564 57.368217,324.725769 
z"/>
<path fill="#CD8D55" opacity="1.000000" stroke="none" 
	d="
M43.861732,199.484406 
	C43.356552,200.475571 42.939842,201.131104 42.258331,201.920105 
	C42.410610,195.473526 46.299294,190.791321 50.945576,186.291321 
	C48.850929,190.552124 46.400566,194.850433 43.861732,199.484406 
z"/>
<path fill="#FCE9D1" opacity="1.000000" stroke="none" 
	d="
M200.316437,346.855347 
	C204.068253,343.239166 208.158737,339.664948 212.608032,336.029053 
	C212.966858,335.967407 213.168701,336.174316 213.096558,336.559082 
	C210.302490,339.603210 207.580551,342.262543 204.858627,344.921875 
	C203.457458,345.580353 202.056290,346.238831 200.316437,346.855347 
z"/>
<path fill="#CD8D55" opacity="1.000000" stroke="none" 
	d="
M205.222717,344.917236 
	C207.580551,342.262543 210.302490,339.603210 213.197296,336.662720 
	C214.354630,335.630219 215.339081,334.878845 216.624374,334.031158 
	C215.841141,340.378021 210.107620,342.019012 205.222717,344.917236 
z"/>
<path fill="#B27C4F" opacity="1.000000" stroke="none" 
	d="
M186.283066,354.616638 
	C190.103989,352.289642 194.219803,350.150391 198.702774,347.977905 
	C196.146286,352.489960 191.796356,354.437927 186.283066,354.616638 
z"/>
<path fill="#CD8D55" opacity="1.000000" stroke="none" 
	d="
M221.303558,329.961395 
	C223.388855,327.027618 225.825226,324.082489 228.569107,321.010681 
	C228.840851,325.795197 224.831223,327.540833 221.303558,329.961395 
z"/>
<path fill="#CD8D55" opacity="1.000000" stroke="none" 
	d="
M73.768631,163.082047 
	C71.298615,165.701965 68.452858,168.272003 65.271301,170.924072 
	C67.754623,168.348145 70.573761,165.690155 73.768631,163.082047 
z"/>
<path fill="#CD8D55" opacity="1.000000" stroke="none" 
	d="
M39.830170,205.219971 
	C38.682438,208.716812 37.195568,212.307388 35.449074,216.159882 
	C34.163139,211.766403 36.617641,208.458954 39.830170,205.219971 
z"/>
<path fill="#CD8D55" opacity="1.000000" stroke="none" 
	d="
M193.702484,153.920624 
	C190.220993,152.757950 186.693893,151.232025 182.955902,149.413147 
	C186.382309,150.599243 190.019592,152.078293 193.702484,153.920624 
z"/>
<path fill="#CD8D55" opacity="1.000000" stroke="none" 
	d="
M235.062515,191.944733 
	C236.737854,195.002930 238.413193,198.061111 240.015289,201.581543 
	C239.942062,202.043762 239.730621,202.207932 239.506195,201.951935 
	C237.687698,198.596390 236.093643,195.496857 234.640579,192.284485 
	C234.781570,192.171677 235.062515,191.944733 235.062515,191.944733 
z"/>
<path fill="#CD8D55" opacity="1.000000" stroke="none" 
	d="
M181.982574,148.605072 
	C178.786758,147.859482 175.514008,146.761810 172.001953,145.387634 
	C175.143631,146.158401 178.524628,147.205688 181.982574,148.605072 
z"/>
<path fill="#CD8D55" opacity="1.000000" stroke="none" 
	d="
M204.888840,160.772552 
	C202.580048,159.735687 200.278824,158.331345 197.869019,156.621017 
	C200.139099,157.678375 202.517761,159.041733 204.888840,160.772552 
z"/>
<path fill="#CD8D55" opacity="1.000000" stroke="none" 
	d="
M57.362778,324.640869 
	C57.579708,325.278564 57.791199,325.831329 58.023369,326.682495 
	C56.352341,325.229095 54.660637,323.477264 52.984528,321.358337 
	C53.615547,321.424042 54.230976,321.856812 55.099834,322.415497 
	C55.353264,322.541382 55.493206,322.544861 55.612259,322.802368 
	C56.280804,323.502380 56.830299,323.944855 57.379795,324.387329 
	C57.379791,324.387329 57.357346,324.555969 57.362778,324.640869 
z"/>
<path fill="#CD8D55" opacity="1.000000" stroke="none" 
	d="
M217.909882,171.768463 
	C215.857117,170.370346 213.816055,168.612823 211.648071,166.531769 
	C213.654617,167.941849 215.788101,169.675461 217.909882,171.768463 
z"/>
<path fill="#CD8D55" opacity="1.000000" stroke="none" 
	d="
M237.277390,308.919495 
	C238.078232,306.406311 239.252472,303.885406 240.704742,301.166016 
	C239.872131,303.615570 238.761444,306.263672 237.277390,308.919495 
z"/>
<path fill="#CD8D55" opacity="1.000000" stroke="none" 
	d="
M230.077484,184.916321 
	C231.723999,187.020386 233.370514,189.124451 235.039764,191.586624 
	C235.062515,191.944733 234.781570,192.171677 234.425537,192.046616 
	C232.723724,190.268799 231.377930,188.616028 230.032150,186.963257 
	C230.032150,186.963257 230.005615,187.003723 230.013794,186.701111 
	C229.894928,186.039169 229.767899,185.679855 229.750763,185.220276 
	C229.860641,185.120026 230.077484,184.916321 230.077484,184.916321 
z"/>
<path fill="#CD8D55" opacity="1.000000" stroke="none" 
	d="
M94.906616,352.152130 
	C95.532761,352.573578 96.180786,352.986053 96.942345,353.672363 
	C94.062485,352.911499 91.069092,351.876801 88.044106,350.408142 
	C88.012512,349.974182 88.169189,349.780975 88.521210,349.847412 
	C90.880486,350.657135 92.887749,351.400482 94.895012,352.143799 
	C94.895012,352.143799 94.928505,352.143188 94.906616,352.152130 
z"/>
<path fill="#CD8D55" opacity="1.000000" stroke="none" 
	d="
M58.985611,176.314270 
	C57.876957,178.229263 56.412891,180.159515 54.631065,182.170807 
	C55.752274,180.277756 57.191235,178.303635 58.985611,176.314270 
z"/>
<path fill="#CD8D55" opacity="1.000000" stroke="none" 
	d="
M64.108749,171.181946 
	C63.004433,172.888657 61.515457,174.553726 59.706841,176.271545 
	C60.832832,174.596298 62.278469,172.868301 64.108749,171.181946 
z"/>
<path fill="#CD8D55" opacity="1.000000" stroke="none" 
	d="
M231.319611,317.956848 
	C232.095154,316.072418 233.237366,314.166229 234.676453,312.108551 
	C233.877640,313.949738 232.781952,315.942413 231.319611,317.956848 
z"/>
<path fill="#CD8D55" opacity="1.000000" stroke="none" 
	d="
M225.515488,181.440048 
	C225.302643,180.831955 225.087830,180.291382 224.842682,179.460480 
	C226.229294,180.497086 227.646255,181.824036 228.984619,183.620377 
	C228.906006,184.089767 228.699295,184.279724 228.463745,184.073059 
	C227.313614,183.124084 226.399017,182.381790 225.484436,181.639496 
	C225.484436,181.639496 225.513519,181.507568 225.515488,181.440048 
z"/>
<path fill="#CD8D55" opacity="1.000000" stroke="none" 
	d="
M76.063904,343.276367 
	C77.472618,343.594025 78.885834,344.271027 80.637001,344.991577 
	C80.974945,345.035156 80.984726,345.006317 81.066162,345.267761 
	C81.513023,345.920227 81.878448,346.311249 82.147568,346.815308 
	C82.051262,346.928345 81.854721,347.150970 81.854721,347.150970 
	C79.925949,345.979218 77.997169,344.807434 76.063904,343.276367 
z"/>
<path fill="#CD8D55" opacity="1.000000" stroke="none" 
	d="
M241.300934,300.954590 
	C241.404556,299.758972 241.842529,298.529663 242.535446,297.092133 
	C242.405334,298.229584 242.020294,299.575226 241.300934,300.954590 
z"/>
<path fill="#CD8D55" opacity="1.000000" stroke="none" 
	d="
M46.053406,311.274963 
	C47.130802,312.346252 48.164482,313.784485 49.257111,315.564758 
	C48.213932,314.485138 47.111805,313.063507 46.053406,311.274963 
z"/>
<path fill="#CD8D55" opacity="1.000000" stroke="none" 
	d="
M72.093781,340.097229 
	C73.350143,340.581238 74.601959,341.448242 75.963425,342.626251 
	C74.745140,342.118256 73.417191,341.299255 72.093781,340.097229 
z"/>
<path fill="#CD8D55" opacity="1.000000" stroke="none" 
	d="
M208.865494,163.797195 
	C207.620743,163.348404 206.395706,162.524918 205.032730,161.410614 
	C206.224930,161.887360 207.555069,162.654938 208.865494,163.797195 
z"/>
<path fill="#CD8D55" opacity="1.000000" stroke="none" 
	d="
M224.861023,178.817276 
	C223.883240,178.366226 222.939392,177.554153 221.932800,176.422165 
	C222.878342,176.886917 223.886642,177.671585 224.861023,178.817276 
z"/>
<path fill="#CD8D55" opacity="1.000000" stroke="none" 
	d="
M50.049217,317.151672 
	C50.990051,317.972992 51.898041,319.176636 52.907578,320.690125 
	C52.011536,319.844666 51.013950,318.689362 50.049217,317.151672 
z"/>
<path fill="#CD8D55" opacity="1.000000" stroke="none" 
	d="
M197.714584,155.931274 
	C196.569290,155.820831 195.370895,155.342850 194.005020,154.586227 
	C195.112183,154.726318 196.386841,155.145035 197.714584,155.931274 
z"/>
<path fill="#CD8D55" opacity="1.000000" stroke="none" 
	d="
M97.097061,354.320648 
	C98.357101,354.375183 99.666908,354.817017 101.215958,355.521973 
	C100.019066,355.426025 98.582947,355.067017 97.097061,354.320648 
z"/>
<path fill="#CD8D55" opacity="1.000000" stroke="none" 
	d="
M229.217255,320.876770 
	C229.375366,320.002136 229.895065,319.123016 230.693634,318.099060 
	C230.507965,318.926880 230.043411,319.899567 229.217255,320.876770 
z"/>
<path fill="#CD8D55" opacity="1.000000" stroke="none" 
	d="
M217.309753,333.953735 
	C217.613983,333.204132 218.290985,332.482544 219.256699,331.724854 
	C218.924454,332.453064 218.303482,333.217407 217.309753,333.953735 
z"/>
<path fill="#CD8D55" opacity="1.000000" stroke="none" 
	d="
M235.309677,311.941437 
	C235.418610,311.052612 235.883362,310.126556 236.635895,309.062622 
	C236.504303,309.917908 236.084900,310.911041 235.309677,311.941437 
z"/>
<path fill="#CD8D55" opacity="1.000000" stroke="none" 
	d="
M84.981567,349.025574 
	C84.014198,348.611603 83.046814,348.197632 81.967079,347.467285 
	C81.854721,347.150970 82.051262,346.928345 82.443153,346.890625 
	C83.721130,347.355988 84.607216,347.859039 85.365257,348.527893 
	C85.237213,348.693665 84.981567,349.025604 84.981567,349.025574 
z"/>
<path fill="#CD8D55" opacity="1.000000" stroke="none" 
	d="
M76.716690,161.045898 
	C76.306305,161.741455 75.527916,162.409927 74.434052,163.116486 
	C74.861946,162.442657 75.605316,161.730743 76.716690,161.045898 
z"/>
<path fill="#CD8D55" opacity="1.000000" stroke="none" 
	d="
M219.911469,173.762131 
	C219.276932,173.640213 218.641647,173.175583 217.940338,172.406372 
	C218.553116,172.541000 219.231903,172.980194 219.911469,173.762131 
z"/>
<path fill="#CD8D55" opacity="1.000000" stroke="none" 
	d="
M52.858555,184.059250 
	C52.783951,184.707047 52.349693,185.386292 51.623215,186.166260 
	C51.720299,185.541565 52.109600,184.816116 52.858555,184.059250 
z"/>
<path fill="#CD8D55" opacity="1.000000" stroke="none" 
	d="
M87.933372,350.070099 
	C87.036118,349.948730 86.218002,349.731445 85.190727,349.269897 
	C84.981567,349.025604 85.237213,348.693665 85.652306,348.630310 
	C86.767998,348.971619 87.468590,349.376312 88.169189,349.780975 
	C88.169189,349.780975 88.012512,349.974182 87.933372,350.070099 
z"/>
<path fill="#CD8D55" opacity="1.000000" stroke="none" 
	d="
M61.029327,330.312897 
	C61.602203,330.472137 62.206692,330.957214 62.912613,331.722290 
	C62.363018,331.547791 61.711979,331.093262 61.029327,330.312897 
z"/>
<path fill="#CD8D55" opacity="1.000000" stroke="none" 
	d="
M66.337624,335.993225 
	C66.817398,335.883789 67.345192,336.096802 68.004791,336.576324 
	C67.552933,336.667114 66.969292,336.491394 66.337624,335.993225 
z"/>
<path fill="#CD8D55" opacity="1.000000" stroke="none" 
	d="
M65.016159,334.243469 
	C65.433197,334.316986 65.860931,334.713531 66.306473,335.407227 
	C65.891808,335.325134 65.459328,334.945801 65.016159,334.243469 
z"/>
<path fill="#CD8D55" opacity="1.000000" stroke="none" 
	d="
M68.207703,337.102966 
	C68.639908,337.040588 69.180176,337.263306 69.833855,337.766907 
	C69.403427,337.827911 68.859589,337.608002 68.207703,337.102966 
z"/>
<path fill="#CD8D55" opacity="1.000000" stroke="none" 
	d="
M220.003387,331.639740 
	C219.935440,331.171234 220.181259,330.674866 220.698715,330.067230 
	C220.752609,330.507935 220.534897,331.059906 220.003387,331.639740 
z"/>
<path fill="#CD8D55" opacity="1.000000" stroke="none" 
	d="
M59.311317,329.003418 
	C59.766174,328.946594 60.277203,329.198608 60.900787,329.726196 
	C60.464725,329.771912 59.916107,329.542084 59.311317,329.003418 
z"/>
<path fill="#CD8D55" opacity="1.000000" stroke="none" 
	d="
M58.027740,327.274323 
	C58.425488,327.360199 58.828804,327.762543 59.268475,328.455566 
	C58.880989,328.361053 58.457150,327.975952 58.027740,327.274323 
z"/>
<path fill="#CD8D55" opacity="1.000000" stroke="none" 
	d="
M240.048050,201.962021 
	C240.450424,202.351654 240.746826,202.823013 241.109192,203.569595 
	C241.175156,203.844803 240.964859,204.019897 240.656189,203.904999 
	C240.141891,203.262711 239.936249,202.735321 239.730621,202.207932 
	C239.730621,202.207932 239.942062,202.043762 240.048050,201.962021 
z"/>
<path fill="#D08A4F" opacity="1.000000" stroke="none" 
	d="
M105.021881,130.995148 
	C105.149384,131.132401 105.257736,131.275940 105.366089,131.419464 
	C105.278572,131.378448 105.191055,131.337418 105.046661,131.167938 
	C104.989792,131.039474 105.002739,131.001419 105.021881,130.995148 
z"/>
<path fill="#CD8D55" opacity="1.000000" stroke="none" 
	d="
M220.883881,174.814362 
	C220.667755,174.897614 220.361450,174.735489 219.984039,174.316498 
	C220.206528,174.229401 220.500122,174.399185 220.883881,174.814362 
z"/>
<path fill="#CD8D55" opacity="1.000000" stroke="none" 
	d="
M229.010254,183.995789 
	C229.383377,184.070206 229.617813,184.277527 229.947662,184.720032 
	C230.077484,184.916321 229.860641,185.120026 229.546677,185.093796 
	C228.977066,184.857651 228.799255,184.595032 228.699295,184.279724 
	C228.699295,184.279724 228.906006,184.089767 229.010254,183.995789 
z"/>
<path fill="#CD8D55" opacity="1.000000" stroke="none" 
	d="
M53.931145,182.298828 
	C54.084290,182.550232 53.940769,182.906158 53.539085,183.412781 
	C53.398773,183.176773 53.516624,182.790085 53.931145,182.298828 
z"/>
<path fill="#CD8D55" opacity="1.000000" stroke="none" 
	d="
M221.857605,175.860107 
	C221.644623,175.923965 221.361252,175.733170 221.009140,175.283981 
	C221.222656,175.218887 221.504929,175.412170 221.857605,175.860107 
z"/>
<path fill="#CD8D55" opacity="1.000000" stroke="none" 
	d="
M209.825989,164.885406 
	C209.601395,164.971283 209.299072,164.800568 208.922455,164.370590 
	C209.148193,164.283829 209.448227,164.456329 209.825989,164.885406 
z"/>
<path fill="#CD8D55" opacity="1.000000" stroke="none" 
	d="
M40.823097,204.100067 
	C40.923210,204.314163 40.786095,204.640808 40.386440,205.045425 
	C40.277893,204.819809 40.431881,204.516205 40.823097,204.100067 
z"/>
<path fill="#CD8D55" opacity="1.000000" stroke="none" 
	d="
M210.926880,165.790405 
	C210.724457,165.888275 210.399292,165.749054 209.971222,165.355591 
	C210.180267,165.251999 210.492203,165.402664 210.926880,165.790405 
z"/>
<path fill="#CD8D55" opacity="1.000000" stroke="none" 
	d="
M63.098118,332.227417 
	C63.292381,332.158691 63.589546,332.331604 63.985332,332.750122 
	C63.789642,332.820160 63.495335,332.644592 63.098118,332.227417 
z"/>
<path fill="#A8BE4C" opacity="1.000000" stroke="none" 
	d="
M118.024208,181.165741 
	C136.402710,171.990417 154.881821,172.584290 173.552979,181.033051 
	C172.780930,182.641006 171.893219,183.811005 170.645752,184.921021 
	C169.480804,184.301697 168.751602,183.494003 167.858841,183.220886 
	C157.033524,179.908981 145.974579,180.659775 134.942902,181.616486 
	C132.937531,181.790390 131.015976,182.930969 128.943405,183.665085 
	C129.392838,185.461212 129.708603,186.723160 129.655029,187.948456 
	C126.193581,187.611282 123.101463,187.310776 120.004517,187.004974 
	C119.999687,186.999695 119.989082,186.988937 119.932495,186.640350 
	C119.258667,184.583099 118.641434,182.874420 118.024208,181.165741 
M128.423538,181.486588 
	C128.423538,181.486588 128.523590,181.429520 128.423538,181.486588 
z"/>
<path fill="#B1C657" opacity="1.000000" stroke="none" 
	d="
M206.963684,210.988358 
	C206.963684,210.988358 207.076309,211.364243 207.155106,211.829544 
	C207.524765,212.514664 207.815628,212.734497 208.106476,212.954330 
	C208.106476,212.954330 208.024384,212.941788 208.026642,213.321487 
	C208.535904,215.757462 208.540039,218.143951 209.636261,219.813309 
	C214.597855,227.368942 215.500504,235.658829 215.082108,244.381729 
	C214.965256,246.817734 214.446640,247.742081 211.859482,246.785675 
	C211.125641,246.360062 210.563644,246.182892 210.040039,245.643646 
	C209.975311,243.622818 210.515549,241.437897 209.661301,240.393539 
	C205.201248,234.940750 203.329239,228.371552 201.333878,221.841644 
	C202.954651,221.240082 204.250320,220.771652 205.638184,220.269882 
	C202.638824,213.779404 199.816666,207.641220 196.965500,201.516525 
	C195.649170,198.688889 194.276123,195.887650 192.963928,193.036346 
	C192.999084,192.998245 193.068420,192.921173 193.068420,192.921173 
	C198.262726,196.162643 202.350250,200.243134 203.754852,207.152176 
	C205.036438,208.800003 206.000061,209.894180 206.963684,210.988358 
z"/>
<path fill="#B2C160" opacity="1.000000" stroke="none" 
	d="
M201.008774,221.974777 
	C203.329239,228.371552 205.201248,234.940750 209.661301,240.393539 
	C210.515549,241.437897 209.975311,243.622818 210.136475,245.878357 
	C210.806793,246.661484 211.419067,246.847794 212.031342,247.034119 
	C214.446640,247.742081 214.965256,246.817734 215.082108,244.381729 
	C215.500504,235.658829 214.597855,227.368942 209.636261,219.813309 
	C208.540039,218.143951 208.535904,215.757462 208.056366,213.292496 
	C213.560455,219.799149 216.008026,227.915970 216.887054,236.480499 
	C217.356491,241.054459 216.922791,245.721130 216.311737,250.704346 
	C214.242676,250.757889 212.758591,250.453018 211.428391,250.179779 
	C210.911728,251.150314 210.405914,252.100464 209.900116,253.050629 
	C208.146286,248.276627 206.430359,243.488297 204.630997,238.731522 
	C200.479950,227.757843 193.995834,218.255234 186.088837,209.017944 
	C186.033920,208.236359 186.044174,208.055817 186.419830,207.922134 
	C188.857162,208.673416 190.929092,209.377823 193.042755,210.425720 
	C195.453354,214.697144 200.975021,216.395508 201.008774,221.974777 
z"/>
<path fill="#B0BE63" opacity="1.000000" stroke="none" 
	d="
M120.009338,187.010269 
	C123.101463,187.310776 126.193581,187.611282 130.022430,187.789673 
	C132.515976,187.462234 134.303177,186.943741 136.023849,187.110794 
	C141.014267,187.595245 145.977951,188.354889 151.294205,189.152100 
	C154.303207,190.218231 157.116791,190.850357 159.607819,192.116898 
	C165.577332,195.152039 171.395203,198.485458 177.200195,201.779846 
	C177.126099,201.861221 176.978119,202.024185 176.978119,202.024185 
	C169.813690,198.988190 162.801895,195.500732 155.451172,193.015823 
	C142.537308,188.650284 129.270142,189.431366 115.985512,191.410416 
	C111.786568,192.035934 107.253464,193.500809 103.082466,189.387054 
	C107.965668,186.549316 112.631523,183.837875 117.660789,181.146088 
	C118.641434,182.874420 119.258667,184.583099 119.562164,186.635773 
	C117.843086,186.353943 116.437752,185.728134 115.032417,185.102325 
	C114.673233,186.732895 115.305046,188.611526 115.741463,188.567169 
	C117.201744,188.418777 118.592163,187.582870 120.009338,187.010269 
z"/>
<path fill="#A2B15B" opacity="1.000000" stroke="none" 
	d="
M209.889313,253.471863 
	C210.405914,252.100464 210.911728,251.150314 211.428391,250.179779 
	C212.758591,250.453018 214.242676,250.757889 216.132706,251.082245 
	C216.390793,252.479919 216.242935,253.858093 216.016373,255.837357 
	C215.937668,256.438446 215.911072,256.819855 215.911072,256.819855 
	C215.911072,256.819855 215.954956,256.923157 215.591339,257.018799 
	C215.220734,258.403503 215.213760,259.692535 215.206787,260.981598 
	C214.997025,263.663361 214.787277,266.345154 214.577530,269.026917 
	C213.836472,269.093628 213.095413,269.160370 212.354370,269.227081 
	C211.529083,264.115753 210.703812,259.004425 209.889313,253.471863 
z"/>
<path fill="#FCE9D1" opacity="1.000000" stroke="none" 
	d="
M239.506180,201.951935 
	C239.936249,202.735321 240.141891,203.262711 240.550140,203.991455 
	C242.191299,207.519684 243.629837,210.846558 245.095398,214.537048 
	C244.010498,214.093338 242.463806,213.527771 241.858185,212.438843 
	C238.278381,206.002029 234.856201,199.474564 231.526794,192.903717 
	C230.729492,191.330185 230.485779,189.476166 230.009796,187.357208 
	C231.377930,188.616028 232.723724,190.268799 234.284546,192.159424 
	C236.093643,195.496857 237.687698,198.596390 239.506180,201.951935 
z"/>
<path fill="#B1C657" opacity="1.000000" stroke="none" 
	d="
M171.005493,184.981003 
	C171.893219,183.811005 172.780930,182.641006 173.858704,181.196533 
	C177.751129,182.892456 181.453491,184.862808 185.192749,187.274963 
	C185.229614,187.716766 184.986206,188.013855 184.613586,188.008698 
	C183.495087,188.001953 182.749176,188.000366 181.766403,187.707504 
	C178.021515,186.604492 174.513504,185.792740 171.005493,184.981003 
z"/>
<path fill="#FCE9D1" opacity="1.000000" stroke="none" 
	d="
M88.521210,349.847412 
	C87.468590,349.376312 86.767998,348.971619 85.780350,348.464539 
	C84.607216,347.859039 83.721130,347.355988 82.539459,346.777618 
	C81.878448,346.311249 81.513023,345.920227 81.056870,345.276581 
	C86.665741,344.853882 91.138954,347.345856 94.886215,351.788269 
	C92.887749,351.400482 90.880486,350.657135 88.521210,349.847412 
z"/>
<path fill="#B1C657" opacity="1.000000" stroke="none" 
	d="
M185.353714,187.570221 
	C187.907028,189.055664 190.336258,190.687668 192.916946,192.620422 
	C193.068420,192.921173 192.999084,192.998245 192.635254,193.044067 
	C190.517746,193.055649 188.764069,193.021408 186.880035,192.696869 
	C186.164352,191.276382 185.579010,190.146194 184.994980,188.765442 
	C184.992920,188.347855 184.989563,188.180847 184.986206,188.013855 
	C184.986206,188.013855 185.229614,187.716766 185.353714,187.570221 
z"/>
<path fill="#B0BE63" opacity="1.000000" stroke="none" 
	d="
M186.054428,207.875275 
	C186.044174,208.055817 186.033920,208.236359 186.010925,208.687622 
	C183.056778,206.863754 180.115356,204.769165 177.076019,202.349396 
	C176.978119,202.024185 177.126099,201.861221 177.579346,201.866776 
	C179.824173,203.143204 181.615723,204.414078 183.398392,205.669159 
	C183.389496,205.653366 183.334824,205.614197 183.669678,205.754272 
	C184.687851,206.554657 185.371140,207.214966 186.054428,207.875275 
z"/>
<path fill="#FCE9D1" opacity="1.000000" stroke="none" 
	d="
M228.463745,184.073059 
	C228.799255,184.595032 228.977066,184.857651 229.436798,185.194061 
	C229.767899,185.679855 229.894928,186.039169 230.032547,186.684448 
	C228.435684,185.434448 226.828247,183.898483 225.352615,182.001007 
	C226.399017,182.381790 227.313614,183.124084 228.463745,184.073059 
z"/>
<path fill="#B1C657" opacity="1.000000" stroke="none" 
	d="
M215.420609,260.622009 
	C215.213760,259.692535 215.220734,258.403503 215.536835,257.032227 
	C215.775467,258.054108 215.704956,259.158264 215.420609,260.622009 
z"/>
<path fill="#B2C160" opacity="1.000000" stroke="none" 
	d="
M206.981567,210.650269 
	C206.000061,209.894180 205.036438,208.800003 204.042740,207.384125 
	C205.008255,208.145691 206.003860,209.228943 206.981567,210.650269 
z"/>
<path fill="#FCE9D1" opacity="1.000000" stroke="none" 
	d="
M57.540161,324.034729 
	C56.830299,323.944855 56.280804,323.502380 55.681252,322.790588 
	C56.320969,322.908203 57.010746,323.295166 57.540161,324.034729 
z"/>
<path fill="#B2C160" opacity="1.000000" stroke="none" 
	d="
M216.044800,256.772827 
	C215.911072,256.819855 215.937668,256.438446 215.954987,256.248352 
	C216.285889,256.211792 216.354630,256.434326 216.044800,256.772827 
z"/>
<path fill="#B2C160" opacity="1.000000" stroke="none" 
	d="
M208.016876,212.693954 
	C207.815628,212.734497 207.524765,212.514664 207.154083,212.025742 
	C207.358597,211.982285 207.642944,212.207932 208.016876,212.693954 
z"/>
<path fill="#B3CB4C" opacity="1.000000" stroke="none" 
	d="
M184.993668,189.016006 
	C185.579010,190.146194 186.164352,191.276382 186.828735,193.005920 
	C186.180664,193.641464 185.419876,193.834961 184.731918,193.687881 
	C180.789276,192.845016 176.863953,191.921265 172.719284,191.029999 
	C172.505814,191.035004 172.078796,191.031281 171.729202,191.019135 
	C170.913971,190.996323 170.448334,190.985672 169.977203,190.755249 
	C169.971710,190.535507 169.984131,190.096024 169.887085,189.857605 
	C169.519592,189.418625 169.249146,189.218079 168.987091,189.019348 
	C168.995468,189.021164 168.973846,189.033768 168.927353,188.680908 
	C164.038025,182.721802 157.068817,184.205261 150.924545,183.083069 
	C148.213425,182.587891 145.336670,182.999603 142.535110,182.999603 
	C142.508438,183.486252 142.481766,183.972900 142.455093,184.459549 
	C145.299942,185.629150 148.144806,186.798767 150.987183,188.228165 
	C150.973846,188.660812 150.962982,188.833679 150.952133,189.006561 
	C145.977951,188.354889 141.014267,187.595245 136.023849,187.110794 
	C134.303177,186.943741 132.515976,187.462234 130.391754,187.826355 
	C129.708603,186.723160 129.392838,185.461212 128.943405,183.665085 
	C131.015976,182.930969 132.937531,181.790390 134.942902,181.616486 
	C145.974579,180.659775 157.033524,179.908981 167.858841,183.220886 
	C168.751602,183.494003 169.480804,184.301697 170.645752,184.921021 
	C174.513504,185.792740 178.021515,186.604492 181.974335,187.966507 
	C183.277313,188.683197 184.135483,188.849609 184.993668,189.016006 
z"/>
<path fill="#B3CB4C" opacity="1.000000" stroke="none" 
	d="
M128.473572,181.458054 
	C128.523590,181.429520 128.423538,181.486588 128.473572,181.458054 
z"/>
<path fill="#B8CE57" opacity="1.000000" stroke="none" 
	d="
M172.932755,191.024963 
	C176.863953,191.921265 180.789276,192.845016 184.731918,193.687881 
	C185.419876,193.834961 186.180664,193.641464 186.959091,193.296234 
	C188.764069,193.021408 190.517746,193.055649 192.600113,193.082153 
	C194.276123,195.887650 195.649170,198.688889 196.965500,201.516525 
	C199.816666,207.641220 202.638824,213.779404 205.638184,220.269882 
	C204.250320,220.771652 202.954651,221.240082 201.333878,221.841644 
	C200.975021,216.395508 195.453354,214.697144 192.909119,210.085449 
	C188.598618,205.485901 184.484680,201.547379 180.320160,197.663071 
	C177.899628,195.405411 175.397934,193.234772 172.932755,191.024963 
z"/>
<path fill="#A2B15B" opacity="1.000000" stroke="none" 
	d="
M211.859482,246.785675 
	C211.419067,246.847794 210.806793,246.661484 210.098083,246.240448 
	C210.563644,246.182892 211.125641,246.360062 211.859482,246.785675 
z"/>
<path fill="#A5B938" opacity="1.000000" stroke="none" 
	d="
M172.719284,191.029984 
	C175.397934,193.234772 177.899628,195.405411 180.320160,197.663071 
	C184.484680,201.547379 188.598618,205.485901 192.867386,209.741943 
	C190.929092,209.377823 188.857162,208.673416 186.419830,207.922134 
	C185.371140,207.214966 184.687851,206.554657 183.710648,205.772614 
	C183.416748,205.650864 183.407288,205.684952 183.407288,205.684952 
	C181.615723,204.414078 179.824173,203.143204 177.653442,201.785400 
	C171.395203,198.485458 165.577332,195.152039 159.607819,192.116898 
	C157.116791,190.850357 154.303207,190.218231 151.294205,189.152100 
	C150.962982,188.833679 150.973846,188.660812 151.422760,188.237427 
	C153.779449,188.230972 155.730743,188.822800 157.609833,188.646255 
	C161.438049,188.286621 165.096588,192.233170 168.973846,189.033768 
	C168.973846,189.033768 168.995468,189.021164 169.091827,189.250336 
	C169.453491,189.685028 169.718811,189.890518 169.984131,190.096024 
	C169.984131,190.096024 169.971710,190.535507 170.118820,190.993820 
	C170.870224,191.311844 171.474503,191.171555 172.078796,191.031281 
	C172.078796,191.031281 172.505814,191.035004 172.719284,191.029984 
z"/>
<path fill="#A8BE4C" opacity="1.000000" stroke="none" 
	d="
M120.004517,187.004974 
	C118.592163,187.582870 117.201744,188.418777 115.741463,188.567169 
	C115.305046,188.611526 114.673233,186.732895 115.032417,185.102325 
	C116.437752,185.728134 117.843086,186.353943 119.618752,186.984344 
	C119.989082,186.988937 119.999687,186.999695 120.004517,187.004974 
z"/>
<path fill="#B8CE57" opacity="1.000000" stroke="none" 
	d="
M184.994980,188.765442 
	C184.135483,188.849609 183.277313,188.683197 182.211212,188.257782 
	C182.749176,188.000366 183.495087,188.001953 184.613586,188.008698 
	C184.989563,188.180847 184.992920,188.347855 184.994980,188.765442 
z"/>
<path fill="#F7F7F6" opacity="1.000000" stroke="none" 
	d="
M183.398392,205.669159 
	C183.407288,205.684952 183.416748,205.650864 183.375793,205.632538 
	C183.334824,205.614197 183.389496,205.653366 183.398392,205.669159 
z"/>
<path fill="#BCD650" opacity="1.000000" stroke="none" 
	d="
M168.927353,188.680908 
	C165.096588,192.233170 161.438049,188.286621 157.609833,188.646255 
	C155.730743,188.822800 153.779449,188.230972 151.425247,187.977631 
	C148.144806,186.798767 145.299942,185.629150 142.455093,184.459549 
	C142.481766,183.972900 142.508438,183.486252 142.535110,182.999603 
	C145.336670,182.999603 148.213425,182.587891 150.924545,183.083069 
	C157.068817,184.205261 164.038025,182.721802 168.927353,188.680908 
z"/>
<path fill="#B8CE57" opacity="1.000000" stroke="none" 
	d="
M171.729202,191.019135 
	C171.474503,191.171555 170.870224,191.311844 170.124313,191.213562 
	C170.448334,190.985672 170.913971,190.996323 171.729202,191.019135 
z"/>
<path fill="#BCD650" opacity="1.000000" stroke="none" 
	d="
M169.887085,189.857605 
	C169.718811,189.890518 169.453491,189.685028 169.083435,189.248520 
	C169.249146,189.218079 169.519592,189.418625 169.887085,189.857605 
z"/>
</svg>